<?xml version="1.0" encoding="UTF-8" standalone="no"?>
<svg
   xmlns:dc="http://purl.org/dc/elements/1.1/"
   xmlns:cc="http://creativecommons.org/ns#"
   xmlns:rdf="http://www.w3.org/1999/02/22-rdf-syntax-ns#"
   xmlns:svg="http://www.w3.org/2000/svg"
   xmlns="http://www.w3.org/2000/svg"
   viewBox="0 0 306.4231 288.34219"
   height="288.34219"
   width="306.4231"
   xml:space="preserve"
   id="svg2"
   version="1.1"><metadata
     id="metadata8"><rdf:RDF><cc:Work
         rdf:about=""><dc:format>image/svg+xml</dc:format><dc:type
           rdf:resource="http://purl.org/dc/dcmitype/StillImage" /><dc:title></dc:title></cc:Work></rdf:RDF></metadata><defs
     id="defs6"><clipPath
       id="clipPath36"
       clipPathUnits="userSpaceOnUse"><path
         id="path34"
         d="M 0,0 H 1280 V 517.59998 H 0 Z" /></clipPath></defs><g
     transform="matrix(1.3333333,0,0,-1.3333333,-76.203969,972.79624)"
     id="g10"><g
       transform="translate(90.974,621.462)"
       id="g12"><g
         id="g14"><g
           id="g16"><g
             id="g18"><g
               transform="translate(-37.189,31.316)"
               id="g20"><g
                 id="g22"><g
                   transform="translate(154.882)"
                   id="g24"><g
                     transform="scale(-1)"
                     id="g26"><g
                       transform="scale(0.121)"
                       id="g28"><g
                         id="g30"><g
                           id="g32" /><g
                           id="g264"><g
                             id="g262"
                             clip-path="url(#clipPath36)"><g
                               id="g260"><path
                                 id="path38"
                                 style="fill:#bbbdbf;fill-opacity:1;fill-rule:nonzero;stroke:none"
                                 d="m 457.281,28.241 c -2.301,2.402 -6.648,8.921 -8.801,12.398 -0.402,1.039 -1.281,1.441 -3.121,1.441 -1.359,0 -26.48,0.239 -55.757,0.641 -38.641,0.399 -54.723,0.32 -58.801,-0.32 -16.481,-2.723 -42.242,-3.84 -66.403,-2.961 -9.679,0.32 -35.039,0.961 -56.398,1.359 -39.199,0.723 -46.582,2.051 -60,3.602 -6.652,0.765 -16.18,2.804 -20,3.758 -8.195,2.027 -17.16,5.66 -25.52,9.441 -6.589,2.98 -16.57,9.996 -21.121,14 -6.371,5.602 -23.746,24.715 -31.757,36.559 -4.582,6.781 -9.832,16.636 -11.442,24.402 -3.918,19.379 -5.613,39.91 -6.719,59.84 -0.16,3.918 -0.64,7.918 -1.043,8.801 -0.398,0.878 -0.957,4.32 -1.199,7.597 -0.238,3.281 -0.719,9.602 -1.121,14 -3.199,34.563 -3.437,42.961 -1.758,60.801 0.559,6.16 1.2,14.801 1.442,19.199 0.16,4.403 0.718,8.321 1.117,8.723 0.402,0.476 0.723,3.598 0.723,7.039 0,3.437 0.32,6.238 0.718,6.238 0.399,0 0.879,3.52 1.121,7.762 0.559,9.84 2.637,34.48 3.758,43.437 1.442,11.84 1.762,13.602 2.481,14.082 0.398,0.239 0.718,1.282 0.718,2.321 0,1.039 0.403,2.16 0.801,2.398 0.481,0.242 0.801,1.36 0.801,2.403 0,1.039 0.32,2.078 0.719,2.398 0.402,0.238 0.961,1.52 1.281,2.801 0.32,1.359 0.879,2.398 1.281,2.398 0.399,0 0.719,0.723 0.719,1.602 0,0.879 0.32,1.597 0.641,1.597 0.398,0 1.121,1.282 1.757,2.801 0.641,1.52 1.282,2.801 1.602,2.801 0.238,0 0.961,1.359 1.52,2.961 0.558,1.68 1.839,3.84 2.718,4.801 1.602,1.758 1.602,1.84 0.082,1.84 -1.121,0 -0.242,1.199 3.282,4.718 2.636,2.641 6.398,6.559 8.398,8.719 2,2.242 4.078,4.082 4.641,4.082 0.48,0.078 0.961,0.559 0.961,1.117 0,1.121 3.277,4.563 4.238,4.563 0.32,0 2.16,1.597 4.238,3.597 2,2 3.922,3.602 4.402,3.602 0.399,0 0.719,0.559 0.719,1.199 0,0.641 0.723,1.199 1.602,1.199 0.879,0 1.597,0.321 1.597,0.723 0,0.399 0.801,1.039 1.68,1.277 0.961,0.321 2.641,1.442 3.844,2.403 2.719,2.48 10.156,7.437 13.277,8.879 1.281,0.64 3.442,1.761 4.723,2.558 1.68,1.043 2.398,1.121 2.637,0.403 0.32,-0.801 1.043,-0.719 3.203,0.16 1.519,0.64 3.519,1.199 4.316,1.199 0.883,0 1.524,0.32 1.524,0.719 0,0.402 1.199,0.883 2.636,1.121 1.364,0.238 4.16,0.879 6.16,1.359 11.282,2.801 23.68,4.961 31.043,5.36 3.598,0.16 6.559,0.64 6.559,0.961 0,0.402 14.16,0.96 31.441,1.199 17.2,0.32 42.719,0.801 56.559,1.121 34.078,0.719 67.762,-0.481 70.32,-2.481 38.66,0.121 77.696,-1.773 117.282,0.719 5.32,0.473 3.773,0.379 8.878,7.684 7.879,12.75 22.543,19.078 32.86,19.082 5.84,0.004 7.496,-0.61 8.144,-1.242 1.43,-1.395 0.774,-4.442 0.356,-6.641 -1.074,-5.664 -3.09,-10.801 -5.133,-16.066 -2.469,-6.375 0.316,-3.059 55.133,-2.336 44.719,0.16 56.082,0 55.762,-0.797 -0.403,-1.203 4.078,-1.364 4.796,-0.16 0.641,1.039 25.762,1.039 26.403,0 0.801,-1.282 4.398,-0.961 3.918,0.32 -0.239,0.558 0.082,1.199 0.64,1.359 0.563,0.16 23.52,0.078 51.039,-0.16 80.961,-0.801 214,-0.801 214.883,0 2,2 31.36,3.117 78.719,3.117 45.602,0 66.879,-0.957 69.121,-3.117 0.481,-0.402 0,0 4.641,-0.723 23.347,-3.32 48.492,-6.535 73.402,-10.101 10.973,-1.57 32.145,-5.563 47.797,-8.535 9.629,-1.828 19.449,-4.742 28.078,-8.563 4.316,-1.867 14.899,-8.586 19.68,-13.84 7.219,-9.011 11.355,-16.359 14.883,-30.078 3.836,-11.953 4.859,-23.961 6.957,-36.722 1.457,-8.676 2.48,-16.676 3.363,-25.36 5.68,-53.039 5.68,-123.758 0,-176.801 -1.609,-16.703 -3.895,-34.308 -7.203,-49.597 -4.129,-19.098 -11.559,-37.934 -26.879,-50.801 -5.637,-4.559 -31.055,-12.332 -45.84,-15.68 -15.328,-3.472 -28.785,-6.711 -50.801,-9.121 -10.707,-1.519 -21.894,-2.828 -32.398,-4.226 -24.231,-1.875 -25.36,-4.254 -46.563,-6.973 -14.937,-0.691 -26.238,0.078 -55.039,0 -50.238,-0.078 -83.359,0.879 -85.199,2.559 -89.945,3.652 -172.797,1.097 -239.68,0.562 -15.039,-0.082 -26.718,0.16 -26.961,0.559 -0.8,1.039 -28.16,0.961 -28.16,-0.078 0,-0.563 -19.359,-0.723 -57.039,-0.563 l -57.969,0.242 2.239,-6.441 c 1.722,-6.524 1.707,-6.348 3.086,-12.711 1.402,-6.172 3.277,-7.352 -6.641,-7.25 -6.582,0.055 -26.441,9.07 -29.594,13.762 z" /><path
                                 id="path40"
                                 style="fill:#bbbdbf;fill-opacity:1;fill-rule:nonzero;stroke:none"
                                 d="m 857.602,29.92 c 0,1.2 1.437,2.481 2.078,1.84 0.558,-0.558 -0.559,-2.961 -1.36,-2.961 -0.398,0 -0.718,0.481 -0.718,1.121 z" /><path
                                 id="path42"
                                 style="fill:#f8f8f9;fill-opacity:1;fill-rule:nonzero;stroke:none"
                                 d="M 482,20.799 C 471.039,23.6 460,31.202 453.52,40.639 450.559,44.721 444,57.44 444,58.881 c 0,0.641 1.762,1.199 4.641,1.598 6.558,0.883 22.8,0.641 24.718,-0.32 6.739,-12.145 9.329,-19.657 13.039,-33.918 1.082,-6.977 2.442,-6.731 -4.398,-5.442 z" /><path
                                 id="path44"
                                 style="fill:#f8f8f9;fill-opacity:1;fill-rule:nonzero;stroke:none"
                                 d="m 857.602,29.92 c 0,1.2 1.437,2.481 2.078,1.84 0.558,-0.558 -0.559,-2.961 -1.36,-2.961 -0.398,0 -0.718,0.481 -0.718,1.121 z" /><path
                                 id="path46"
                                 style="fill:#f8f8f9;fill-opacity:1;fill-rule:nonzero;stroke:none"
                                 d="m 1007.039,37.362 c 0.961,0.16 2.563,0.16 3.602,0 0.961,-0.16 0.16,-0.321 -1.84,-0.321 -2,0 -2.801,0.161 -1.762,0.321 z" /><path
                                 id="path48"
                                 style="fill:#f8f8f9;fill-opacity:1;fill-rule:nonzero;stroke:none"
                                 d="m 669.488,68.248 c -0.086,0.016 -0.183,0.012 -0.289,-0.007 -0.48,0 -45.597,-0.321 -100.398,-0.641 -94.321,-0.559 -99.762,-0.641 -102.403,-2.078 l -2.796,-1.442 3.199,-0.082 c 4.398,-0.078 11.125,-1.714 12.246,-2.996 4.769,-6.949 4.258,-7.406 7.195,-14.004 27.895,0.25 38.719,0.454 72.957,0.122 22.481,-0.719 29.84,-1.2 32,-2.079 1.52,-0.64 3.52,-1.519 4.403,-1.921 0.878,-0.321 2.476,-0.801 3.597,-0.879 1.121,-0.161 1.922,-0.723 1.84,-1.282 -0.398,-1.601 1.922,-1.039 2.402,0.563 0.321,1.359 -0.242,1.68 -3.601,2.398 -6.879,1.52 -11.84,4 -11.84,6.078 0,2.321 3.922,4.082 12.801,5.602 9.277,1.602 29.519,1.602 35.039,0 4.16,-1.281 7.359,-3.762 7.359,-5.84 0,-2.242 -4.64,-5.121 -9.84,-6.082 -2.64,-0.476 -2.879,-0.719 -2.16,-2.078 0.563,-1.039 1.602,-1.602 3.043,-1.52 1.36,0.079 1.598,0.239 0.797,0.481 -2.16,0.559 -1.758,1.84 0.481,1.84 1.121,0 2.242,0.32 2.48,0.801 0.238,0.398 1.199,0.796 2.078,0.796 0.801,0 1.524,0.321 1.524,0.801 0,0.481 4.078,0.801 10.64,0.801 h 10.637 l 1.281,2.16 c 0.719,1.277 2.399,5.602 3.762,9.68 2.324,6.676 2.891,10.609 1.566,10.808 z" /><path
                                 id="path50"
                                 style="fill:#f8f8f9;fill-opacity:1;fill-rule:nonzero;stroke:none"
                                 d="m 613.441,42.159 c 2.321,0.16 5.918,0.16 8,0 2.079,-0.161 0.161,-0.239 -4.242,-0.239 -4.398,0 -6.078,0.078 -3.758,0.239 z" /><path
                                 id="path52"
                                 style="fill:#f8f8f9;fill-opacity:1;fill-rule:nonzero;stroke:none"
                                 d="m 957.199,42.401 c -31.437,0.398 -32.48,0.48 -25.597,1.519 4,0.559 9.359,1.602 12,2.239 2.636,0.64 6,1.363 7.437,1.601 4.715,2.102 11.231,3.652 15.281,7.762 3.52,3.758 4,12.398 0.961,17.519 -1.84,3.278 -14.801,8.797 -29.281,12.559 -20.805,5.137 -36.953,10.395 -59.199,15.68 -10.688,2.84 -14.528,3.465 -21.199,4.64 -17.524,3.282 -33.204,5.2 -63.602,7.602 -29.68,2.398 -46.559,2.879 -102,2.879 -49.039,0 -60.48,-0.242 -74,-1.442 -29.281,-2.558 -46.883,-5.984 -68,-10.32 C 533.977,101.35 505.984,93.916 495.922,91.202 489.563,89.487 484.559,88.721 470,84.721 c -8.238,-2.242 -46.078,-12 -48.32,-12.48 -3,-0.164 -3.043,0.339 -7.231,2.019 -2.929,0.914 -14.808,5.391 -13.168,7.34 0.399,0.32 3.438,0.879 6.719,1.121 9.84,0.719 19.281,2.238 35.199,5.68 18.336,3.363 32.024,7.492 48.403,11.199 1.359,0.32 3.117,0.801 4,1.199 0.878,0.403 2.718,0.879 4,1.039 1.359,0.242 9.437,2.16 18,4.403 41.277,10.48 46.476,11.519 77.839,15.359 47.52,5.84 148,8.879 238.161,7.281 56,-1.043 77.679,-1.761 97.839,-3.121 10.797,-0.801 13.039,-1.281 14.957,-3.359 0.243,-0.242 1.524,-1.281 2.883,-2.242 5.438,-3.758 18.407,-10.043 70.028,-16.754 26.554,-3.453 47.261,-3.727 61.89,-3.325 19.625,-0.238 48.227,2.508 63.586,3.805 19.149,1.617 37.473,4.785 42.028,7.317 1.605,0.89 7.027,4.078 12.949,8.16 6.558,4.558 13.597,11.758 19.84,20.316 3.265,3.586 5.457,8.32 7.597,11.442 3.188,4.585 8.653,19.476 9.52,22.32 0.847,2.773 3.84,21.121 5.679,41.762 0.481,5.519 1.204,13.437 1.602,17.597 1.039,9.762 1.039,50.641 0,60.242 -0.398,4.079 -1.121,12 -1.68,17.758 -0.48,5.68 -1.859,15.305 -2.48,22.403 -0.863,9.832 -3.008,18.433 -5.442,26.476 -1.726,5.727 -3.597,8.723 -7.117,15.043 -3.281,5.84 -12.961,18.238 -18.562,23.758 -7.61,6.777 -14.785,13.051 -23.117,16 -8.442,2.988 -17.25,3.652 -25.282,4.75 -8.375,1.254 -29.336,4.199 -39.359,5.375 -6.059,0.711 -23.281,2.676 -40.961,3.797 -10.879,0.719 -44.383,-2.5 -53.68,-4.481 -10.632,-2.265 -21.371,-4.246 -31.519,-6.242 -9.977,-2.058 -20.465,-4.277 -29.602,-6.476 -8.48,-2 -14.398,-4.563 -18.64,-7.922 -2.797,-2.321 -3.68,-2.481 -12.559,-3.2 -10.398,-0.878 -35.762,-2 -71.199,-3.281 -29.199,-1.039 -119.442,-1.039 -148,0 -61.281,2.321 -81.199,3.36 -109.602,6.082 -24.398,2.239 -39.918,4.797 -62.16,10 -11.117,2.641 -28.836,7.278 -31.519,7.918 -9.403,2.242 -28.922,7.199 -34.879,8.879 -7.735,1.859 -32.051,7.68 -43.442,9.524 -2.156,0.347 -6.32,1.039 -9.199,1.519 -2.879,0.559 -9.039,1.438 -13.84,2 -12.555,1.742 -10.207,1.223 -3.519,5.598 0.961,0.64 4.238,1.761 7.359,2.48 3.039,0.641 5.762,1.602 6.078,2.082 0.32,0.559 3.281,0.078 8.402,-1.281 55.68,-14.719 77.958,-19.816 82.161,-20.961 17.089,-4.652 36.742,-9 52.16,-12.559 28.23,-6.519 68.801,-9.519 126.801,-9.441 66.957,0.082 123.359,3.359 159.597,9.441 23.367,3.582 47.051,10.168 68.403,15.918 30.957,8.243 47.757,14.481 49.918,18.641 2.718,5.359 2.242,13.84 -1.122,17.359 -1.437,1.524 -5.039,3.602 -10.796,6.082 -2.641,1.2 -14.082,4 -19.602,4.879 -2.879,0.403 -6.801,1.039 -8.801,1.36 -6.16,0.961 47.922,1.84 77.039,1.281 27.364,-0.559 36.242,-1.121 42.961,-2.719 4.321,-1.121 11.039,-2.082 25.602,-3.761 9.469,-1.149 34.605,-4.532 44.035,-5.883 21.566,-3.094 25.309,-4.082 45.644,-8.035 1.731,-0.329 15.02,-2.11 29.918,-7.122 12.321,-3.359 23.887,-11.3 29.84,-20.402 8.149,-12.476 12.805,-28.215 15.203,-40.879 8.321,-45.199 12.239,-111.597 9.758,-167.199 -0.879,-20.238 -2.16,-39.602 -3.199,-48.801 -0.398,-3.519 -1.121,-10 -1.602,-14.398 -3.757,-33.121 -8.398,-53.36 -15.437,-66.801 -7.84,-14.879 -16.32,-22 -32.801,-27.52 -15.121,-5.144 -30.691,-7.847 -46.238,-10.878 -21.742,-4.243 -44.738,-7.118 -64.723,-9.602 -14.976,-0.73 -22.664,-1.898 -35.597,-4.719 -9.364,-2.722 -28.481,-3.203 -90.403,-2.48 z m 11.602,13.437 c -645.867,-37.226 -322.934,-18.613 0,0 z m 204,13.684 c 19.359,3.519 19.199,3.519 25.597,6.398 3.282,1.442 2.961,1.2 9.524,6.641 4.828,3.262 8.863,9.297 11.117,13.039 4.215,8.215 8.207,16.559 9.762,26.48 1.73,11.282 6.855,21.434 -0.801,25.122 -3.68,-4.211 -6.07,-9.469 -8.973,-14.004 -10.773,-13.825 -24.144,-28.258 -40.226,-35.039 -8.145,-3.149 -12.789,-3.946 -21.602,-6.161 l -3.121,-0.796 c -7.98,-2.047 -23.519,-8.082 -31.039,-16.403 -3.519,-3.84 -2.719,-6.238 2.16,-7.039 1.36,-0.238 10.723,-0.32 20.801,-0.082 13.359,0.242 20.719,0.723 26.801,1.844 z m 54.398,311.68 c -1.886,14.531 3.266,19.777 -1.84,33.918 -1.863,5.191 -3.902,10.132 -6.48,14.878 -5.52,10.321 -19.656,20.192 -29.039,22.481 -5.977,1.461 -12.231,2.719 -17.281,3.519 -8.797,1.364 -14.879,1.762 -30.079,1.84 -20,0.082 -21.679,-0.16 -21.679,-3.437 0,-2.879 8.64,-10.242 17.597,-15.039 5.84,-3.121 7.364,-3.602 20.403,-6.242 9.433,-2.122 24.637,-5.497 31.597,-11.598 0.641,-0.641 2.641,-2.16 4.321,-3.442 9.359,-7.039 20.48,-20.242 25.922,-30.878 0.558,-1.122 2.64,-3.762 4.64,-5.84 6.883,-8.141 2.957,-4.371 1.918,-0.16 z m -165.121,72 c 4,2.796 5.684,11.359 2.883,14.796 -1.199,1.524 -2.641,1.84 -10.16,2.563 -21.68,1.84 -29.36,2.398 -37.922,2.719 -4.899,0.39 -8.852,0.41 -11.598,-2.321 -1.429,-1.515 -1.414,-4.179 -1.281,-6.32 0.121,-1.996 1.84,-5.519 3.762,-7.039 2.558,-2.16 7.519,-3.121 22.238,-4.238 20.32,-1.602 30,-1.684 32.078,-0.16 z" /><path
                                 id="path54"
                                 style="fill:#f8f8f9;fill-opacity:1;fill-rule:nonzero;stroke:none"
                                 d="m 892.801,44.241 c -4.723,0.64 -40.481,0.879 -116.403,0.961 -72.558,0 -109.597,0.238 -109.597,0.796 0.078,0.403 0.48,1.68 0.961,2.801 2.558,5.68 4.316,11.039 5.117,15.442 0.562,2.718 2.48,8.16 4.402,12.16 4.559,9.726 7.606,20.465 11.278,30.32 0,0 0.668,2.406 1.277,3.742 1.363,0.235 6.48,0.692 7.984,0.68 l 2.981,-0.023 c 1.094,-1.688 1.308,-6.5 -0.723,-12.641 -1.558,-4.723 -3.699,-10.668 -4.957,-14.078 -8.109,-21.946 -5.617,-12.047 -16.781,-13.457 -0.645,-2.469 -1.164,-0.266 -1.828,-2.742 90.715,-1.625 178.918,2.257 247.09,4.597 15.359,0.481 25.277,0.481 26.957,0 1.441,-0.48 5.281,-0.801 8.48,-0.801 5.52,0 5.84,-0.078 6.563,-2.078 4.359,-15.406 -6.579,-16.062 -11.524,-18 -4.371,-1.535 -4.351,-1.343 -8.238,-2.558 -5.602,-0.801 -17.442,-2.961 -22.641,-4.082 -7.039,-1.602 -22.078,-2.16 -30.398,-1.039 z m 23.84,1.519 c 5.156,0.488 14.808,4.176 15.359,7.918 0.258,3.016 -3.121,4.32 -6.078,5.121 -1.281,0.403 -7.684,0.723 -14.32,0.641 -20.082,0 -34.801,-3.121 -34.801,-7.442 0,-1.437 0.64,-1.839 7.597,-4.878 5.043,-2.161 20.883,-2.879 32.243,-1.36 z" /><path
                                 id="path56"
                                 style="fill:#f8f8f9;fill-opacity:1;fill-rule:nonzero;stroke:none"
                                 d="m 891.23,48.67 c -3.156,0.762 -5.882,1.395 -8.031,2.532 -2.719,0 -0.879,2.16 2.242,2.636 2.239,0.403 3.2,0.16 4.321,-0.957 2.16,-2.402 6.718,-3.519 11.758,-2.961 12.082,1.442 12.402,1.52 13.761,4.239 l 1.278,2.562 0.961,-2 c 0.48,-1.121 0.878,-3.043 0.878,-4.32 V 47.998 H 905.84 c -6.961,0 -13.879,0.497 -14.61,0.672 z" /><path
                                 id="path58"
                                 style="fill:#f8f8f9;fill-opacity:1;fill-rule:nonzero;stroke:none"
                                 d="m 920,51.92 c 0,1.282 -0.238,2.879 -0.48,3.602 -0.399,1.039 0.082,1.277 2.32,1.277 2.164,0.106 8.5,-2.183 7.121,-4.48 -1.039,-1.438 -4.16,-2.719 -6.563,-2.719 -2.078,0 -2.398,0.238 -2.398,2.32 z" /><path
                                 id="path60"
                                 style="fill:#f8f8f9;fill-opacity:1;fill-rule:nonzero;stroke:none"
                                 d="m 892,53.6 c -1.52,0.961 -1.121,1.199 3.359,2.32 4.481,1.039 18.243,1.2 18.243,0.16 0,-0.48 -0.801,-1.359 -1.762,-2 -1.36,-0.96 -3.84,-1.281 -10.238,-1.281 -4.641,0 -8.961,0.321 -9.602,0.801 z" /><path
                                 id="path62"
                                 style="fill:#f8f8f9;fill-opacity:1;fill-rule:nonzero;stroke:none"
                                 d="m 230,44.881 c -49.922,0.719 -47.844,1.168 -54.719,2.957 -6.531,1.703 -11.152,3.809 -16.801,6.563 -2.699,1.312 -7.281,2.558 -7.281,3.277 0,0.402 1.84,0.723 4.082,0.723 4.078,0 6.957,1.519 5.918,3.199 -5.867,4.68 -11.054,7.777 -17.597,12.16 -3.848,3.293 -7.59,5.449 -11.602,8.879 -17.344,13.117 -32.629,26.805 -46.559,40.723 -7.761,7.84 -14.48,14.238 -14.961,14.238 -1.281,0 -1.121,-1.359 0.399,-3.602 1.762,-2.718 0.082,-2.636 -4.078,0.161 -4.242,2.882 -5.36,4 -4.481,4.64 0.399,0.242 0.961,0.082 1.282,-0.398 0.238,-0.403 1.519,-0.801 2.796,-0.801 4.481,0 4.723,2.559 2,17.602 -2.878,15.519 -6.558,45.359 -9.277,74.796 -1.281,13.762 -1.762,47.84 -0.801,56.403 0.399,4.16 1.36,13.918 2.078,21.597 0.723,7.68 1.602,16.723 2,20 0.481,3.282 1.204,8.883 1.602,12.403 0.48,3.519 1.199,9.121 1.68,12.398 0.8,5.922 1.039,7.442 3.601,22.563 0.719,4.316 1.117,8.636 0.797,9.758 -0.558,2.082 -3.039,3.121 -6.078,2.32 l -2,-0.481 1.922,2.082 c 2.078,2.239 7.117,4.957 7.918,4.239 0.238,-0.239 -0.399,-1.36 -1.36,-2.399 -1.519,-1.601 -1.601,-2 -0.558,-2.801 1.039,-0.878 1.68,-0.48 3.758,2.079 11.086,14.492 29.105,29.652 40.718,38.64 4.747,3.672 6.403,5.36 12.801,10.321 6.403,4.96 9.442,7.507 12.801,9.921 5.645,4.047 10.082,7.508 15.52,10.559 3.785,2.125 6.718,4.719 4,6.559 -1.2,0.722 -3.598,1.601 -5.442,1.839 l -3.277,0.563 3.84,1.039 c 6.871,2.246 12.804,5.035 18.961,7.602 5.039,2.16 5.839,2.238 26,2.957 28.957,0.961 117.918,0.32 123.597,-0.879 31.563,-3.371 19.856,-3.102 65.68,-2.801 3.492,-0.207 5.719,-7.117 7.519,-9.68 4.118,-5.847 10.215,-8.691 15.602,-10.558 6.078,-2.082 7.039,-2.563 4.801,-2.641 -5.281,0 -13.68,-3.281 -16.801,-6.48 -2.32,-2.481 -3.602,-3.04 -6.48,-3.282 -2.481,-0.16 -3.52,-0.558 -3.52,-1.437 0,-0.961 1.199,-1.199 5.602,-1.36 12.16,-0.402 26.257,-2.699 48.398,-7.121 10.082,-2.015 20.301,-4.234 30,-6.558 12.008,-2.879 22.125,-5.856 31.922,-8.16 10.523,-2.481 23.383,-6.082 32.879,-8.243 13.656,-3.105 36.902,-7.484 49.597,-9.199 3.364,-0.48 4.082,-0.879 4.243,-2.398 0.32,-2.16 0.879,-2.16 -12.641,-0.16 -14.961,2.078 -26.719,4.476 -49.602,10 -6.796,1.679 -13.757,3.277 -15.359,3.679 -17.437,4.078 -24.992,6.571 -31.199,8 -11.313,2.602 -26.164,6.653 -35.68,8.797 -6.305,1.426 -12.703,2.606 -19.359,3.922 -21.36,4 -41.68,5.359 -42.723,2.719 -0.719,-1.84 -0.637,-1.918 1.203,-1.918 1.039,0 1.52,-0.403 1.278,-1.039 -0.161,-0.481 2.679,-0.481 1.64,-3.762 -27.429,-49.156 -40.742,-270.715 -1.398,-337.84 0,-0.32 -0.879,-0.558 -2,-0.558 -2.242,0 -2.723,-1.922 -0.723,-2.723 3.602,-1.359 24.961,0.16 38.723,2.801 14.957,3.093 30.004,5.547 43.519,9.441 3.282,1.039 7.039,2 18.879,4.957 5.52,1.363 18.641,4.563 29.199,7.203 36.082,8.957 63.043,14.321 72.321,14.321 3.519,0 4.16,-0.243 3.922,-1.364 -0.243,-1.519 -1.602,-1.84 -13.84,-3.437 -9.442,-1.199 -24.321,-4.16 -38.801,-7.602 -11.121,-2.64 -13.121,-3.199 -20.398,-5.121 -9.762,-2.558 -12.774,-3.09 -25.84,-6.238 -3.446,-1.063 -11.719,-3.149 -22.082,-5.762 C 458.449,94.627 444.266,91.385 432.801,89.202 420.238,86.799 408,85.12 396.559,84.319 c -7.758,-0.641 -9.118,-2.078 -2.481,-2.719 3.121,-0.32 2.11,-0.508 4.723,-2.238 3.449,-2.285 12.762,-5.297 17.597,-8.082 0.161,-0.321 -2.718,-1.52 -6.32,-2.719 -4.316,-1.441 -7.598,-3.039 -9.199,-4.641 -2.32,-2.16 -9.68,-12.718 -10.719,-15.359 -0.32,-0.723 -0.64,-0.723 -1.121,-0.082 -16.152,1.937 -32.531,-0.426 -48.801,-0.481 -3.84,0 -9.84,-0.558 -13.359,-1.199 -9.68,-1.758 -26.32,-2.801 -41.199,-2.64 -7.36,0.082 -32.321,0.402 -55.68,0.722 z M 343.84,63.6 c 16.961,2.559 34.16,9.121 41.519,15.84 3.2,2.961 3.282,4.238 0.403,7.359 -6,6.403 -14.403,21.442 -18,32.403 -16.953,71.531 -21.18,135.144 -13.84,210 3.816,31.175 6.879,66.089 20.316,91.597 3.84,7.199 7.922,13.199 11.524,17.199 1.199,1.282 2.238,2.961 2.238,3.762 0,1.68 -11.449,8.367 -16.008,10.688 -11.433,5.488 -24.676,9.097 -31.273,9.632 -6.598,0.532 -34.707,0.547 -43.918,0.399 -9.211,-0.149 -86.403,-2.879 -116,-4.879 -28.961,-1.922 -30.403,-2.078 -31.762,-3.441 -0.719,-0.719 -1.199,-1.52 -0.961,-1.68 0.16,-0.238 4.082,0 8.723,0.402 42.605,4.227 103.875,5.133 110.64,5.918 2.719,0.242 14.957,0.442 39.36,0.563 24.398,0.117 36.707,0.191 46.789,-2.821 6.875,-2.05 33.242,-12.699 30.648,-15.66 -6.215,-6.711 -11.695,-16.015 -15.039,-22.961 -5.437,-11.679 -9.519,-26.879 -13.918,-52.718 -4.242,-24.243 -7.679,-70.403 -7.679,-102.403 0,-36.238 4.398,-89.519 9.199,-111.199 0.398,-1.762 1.121,-5.52 1.679,-8.398 5.95,-30.383 8.372,-35.629 24,-57.442 l 2.481,-2.64 -2.32,-2 c -6.719,-5.84 -24.321,-12.239 -40.403,-14.801 -12,-1.84 -101.437,0.722 -159.039,4.562 C 151.922,72.959 148,73.12 148,72.241 c 0,-2.243 7.84,-3.039 50.801,-5.442 C 271.039,62.881 330.559,61.6 343.84,63.6 Z m 23.922,15.281 c -0.403,0.481 -8.801,1.438 -28.961,3.52 -14.723,1.519 -28.785,3.32 -39.602,4.719 -22.976,2.972 -90.074,12.449 -128.961,22.48 -22.476,5.039 -55.437,14.48 -64.238,18.32 -4.66,2.012 -9.043,3.254 -13.84,5.36 -2.808,1.5 -5.465,2.613 -7.359,2.558 -1.121,-0.398 0.719,-1.359 12.238,-6.476 10.723,-4.801 33.359,-12.242 51.359,-16.801 13.282,-3.441 25.442,-6.242 34.801,-8.082 39.184,-8.137 67.571,-13.703 105.602,-18.492 15.508,-1.938 38.156,-4.516 50.398,-5.907 12.961,-1.441 29.52,-2.16 28.563,-1.199 z m -291.524,178 c 2.801,5.199 0.242,16.399 -3.277,14.321 -0.723,-0.481 -2.402,-1.442 -3.602,-2.243 -3.121,-1.918 -4.879,-5.039 -4.238,-7.597 0.559,-2.242 7.359,-8 8.801,-7.524 0.476,0.16 1.519,1.524 2.316,3.043 z M 92.16,392.319 c 22.074,10.332 53.965,17.551 68.481,21.203 13.937,3.504 66.66,13.461 93.757,17.754 30.379,4.808 43.325,6.066 62.161,8.304 13.5,1.606 21.918,1.95 49.043,6.739 -12.122,1.207 -26.071,-0.895 -38.403,-2.321 -31.57,-3.933 -63.09,-8.246 -94.558,-13.597 -27.735,-4.719 -61.016,-11.356 -81.84,-16.801 -20.574,-5.379 -41.637,-11.461 -60.961,-20.559 -6.801,-3.281 -5.36,-3.679 2.32,-0.722 z" /><path
                                 id="path64"
                                 style="fill:#f8f8f9;fill-opacity:1;fill-rule:nonzero;stroke:none"
                                 d="m 73.281,257.362 c -0.32,0.718 -0.16,1.679 0.321,2.16 0.558,0.558 0.796,0.156 0.796,-1.363 0,-2.481 -0.398,-2.719 -1.117,-0.797 z" /><path
                                 id="path66"
                                 style="fill:#f8f8f9;fill-opacity:1;fill-rule:nonzero;stroke:none"
                                 d="m 67.68,260.479 c -0.801,2.16 -0.559,4.082 0.879,5.199 1.203,1.043 1.281,0.883 0.722,-1.117 -0.242,-1.199 -0.16,-2.883 0.321,-3.762 0.636,-1.277 0.636,-1.597 -0.321,-1.597 -0.562,0 -1.359,0.558 -1.601,1.277 z" /><path
                                 id="path68"
                                 style="fill:#f8f8f9;fill-opacity:1;fill-rule:nonzero;stroke:none"
                                 d="m 73.039,266.08 c -0.238,0.641 -0.078,1.598 0.481,2.161 0.64,0.64 0.878,0.32 0.878,-1.282 0,-2.398 -0.558,-2.8 -1.359,-0.879 z" /><path
                                 id="path70"
                                 style="fill:#f8f8f9;fill-opacity:1;fill-rule:nonzero;stroke:none"
                                 d="m 419.199,49.76 -24.801,0.238 1.364,2.563 c 2.367,3.113 4.531,7.266 7.277,9.519 2.082,1.84 2.66,2.231 14.961,2.911 19.355,1.066 17.824,0.707 29.289,0.754 8.719,1.031 9.285,0.957 9.367,-0.883 0,-0.242 -0.734,-0.864 -4.656,-1.184 -8.559,-0.637 -9.039,-0.797 -10.398,-3.199 -0.801,-1.52 -0.723,-2.399 0.718,-5.277 0.961,-1.922 2.106,-5.551 2.106,-5.551 -10.703,-0.164 -17.867,0.058 -25.227,0.109 z" /><path
                                 id="path72"
                                 style="fill:#f8f8f9;fill-opacity:1;fill-rule:nonzero;stroke:none"
                                 d="m 604,46.159 c -5.121,0.882 -11.199,3.203 -11.199,4.32 0,0.32 1.437,0.801 3.199,1.121 2.879,0.48 3.52,0.238 5.359,-1.52 2,-2 2.321,-2.082 12.161,-2.082 10.878,0 10.558,-0.16 13.839,5.043 0.801,1.36 1.121,0.559 1.68,-3.679 l 0.563,-3.762 -11.84,0.078 c -6.481,0.082 -12.641,0.32 -13.762,0.481 z" /><path
                                 id="path74"
                                 style="fill:#f8f8f9;fill-opacity:1;fill-rule:nonzero;stroke:none"
                                 d="m 155.039,47.92 c -15.523,2.246 -24.613,4.469 -37.437,8.961 -7.844,3.418 -15.907,6.75 -22.641,11.117 -12.367,8.024 -27.789,26.872 -38,38.403 -7.172,10.359 -7.926,12.808 -11.359,19.758 -1.442,3.121 -2.243,5.363 -4.801,13.519 -0.563,2 -0.801,4.723 -0.481,6.801 0.274,4.976 0.481,7.363 2.078,12.16 2.602,-1.086 3.684,-3.562 5.602,-5.84 3.039,-3.039 4.16,-5.039 4.32,-7.84 0.836,-5.187 2.504,-10.265 4.399,-14.398 0.402,-0.723 1.679,-3.359 2.961,-5.762 5.519,-10.879 15.586,-25.566 20.398,-31.199 6.703,-8.566 11.117,-13.121 21.121,-21.121 2.879,-2.481 14.961,-8.719 20,-10.399 4.403,-1.441 16.403,-3.679 19.762,-3.679 1.117,0 3.437,-0.723 5.199,-1.52 4.16,-2.082 8.039,-3.57 11.84,-4.961 4.453,-1.633 6.914,-2.633 10.48,-3.922 1.055,-0.378 1.84,-0.32 1.52,-0.796 -5.234,-1.004 -10.598,0.085 -14.961,0.718 z" /><path
                                 id="path76"
                                 style="fill:#f8f8f9;fill-opacity:1;fill-rule:nonzero;stroke:none"
                                 d="m 631.199,48.241 c 0,0.961 -0.238,2.64 -0.558,3.679 -0.481,1.84 -0.403,1.918 2.879,1.36 4.082,-0.641 6.48,-2 6.48,-3.758 0,-1.602 -1.602,-2.32 -5.762,-2.723 -2.718,-0.32 -3.039,-0.16 -3.039,1.442 z" /><path
                                 id="path78"
                                 style="fill:#f8f8f9;fill-opacity:1;fill-rule:nonzero;stroke:none"
                                 d="m 604.641,50.721 c -2.481,1.84 -1.68,2.879 2.398,2.879 2.082,0 6.723,0.238 10.402,0.559 5.918,0.402 6.559,0.32 6.559,-0.957 0,-2.723 -2.398,-3.524 -10.398,-3.524 -5.122,0 -8.082,0.32 -8.961,1.043 z" /><path
                                 id="path80"
                                 style="fill:#f8f8f9;fill-opacity:1;fill-rule:nonzero;stroke:none"
                                 d="m 653.59,73.221 c 0.98,1.594 0.89,1.418 3.609,5.258 2.242,3.043 4.403,6 4.801,6.562 1.602,1.84 8.238,13.278 11.281,19.36 0,0 1.856,4.187 3.766,5.363 1.433,0.879 4.312,0.637 4.312,0.637 4.481,0 5.137,-0.164 5.039,-1.602 -3.367,-10.976 -8.121,-27.304 -14.636,-36.32 -0.961,-1.277 -2.492,-1.344 -10.403,-1.84 -4.113,-0.258 -8.781,0.945 -7.769,2.582 z" /><path
                                 id="path82"
                                 style="fill:#f8f8f9;fill-opacity:1;fill-rule:nonzero;stroke:none"
                                 d="m 391.602,91.6 c -23.606,4.34 -29.872,100.254 -30.715,127.223 0.164,62.293 -1.407,218.898 37.351,215.578 6.961,0 28.641,-2.641 29.602,-3.602 0.238,-0.238 -3.039,-0.398 -7.36,-0.398 -9.761,0 -11.921,-1.121 -18.718,-10 -11.465,-22.153 -15.442,-48.176 -18.403,-70.801 -0.48,-3.281 -1.039,-7.121 -1.281,-8.398 -0.558,-3.364 -2.719,-28.563 -3.68,-44.403 -1.839,-30.719 -0.16,-82.64 3.68,-111.597 2.563,-19.68 3.922,-27.602 6.32,-38.801 1.485,-10.219 4.942,-18.895 7.524,-28 1.519,-5.52 6.238,-14.641 9.199,-17.762 1.598,-1.68 4.641,-3.598 7.359,-4.559 4.161,-1.601 5.122,-1.679 10,-0.878 3.84,0.636 5.84,0.718 6.879,0.078 1.121,-0.641 0.563,-0.801 -2.718,-0.879 -2.321,0 -4.243,-0.321 -4.243,-0.723 0,-1.359 -29.277,-3.359 -30.796,-2.078 z" /><path
                                 id="path84"
                                 style="fill:#f8f8f9;fill-opacity:1;fill-rule:nonzero;stroke:none"
                                 d="m 1077.762,106.561 c 10.051,21.703 17.246,40.144 21.679,63.84 0.239,1.121 0.957,4.879 1.68,8.398 8.879,43.922 8.332,131.41 0.399,165.602 -2.793,12.035 -5.688,25.457 -8.079,34.398 -4.289,13.485 -9.437,27.395 -15.281,39.039 -2.64,5.684 -2.398,5.84 7.281,4.961 31.243,-2 65.047,-5.418 92.161,-9.679 3.312,-0.524 6.679,-1.778 9.437,-3.04 5.77,-2.64 14.481,-8.32 15.68,-10.8 1.922,-3.758 4.242,-10.801 8.64,-26.481 3.602,-13.121 7.2,-30.64 10.243,-50.801 1.359,-9.437 3.918,-38.558 4,-45.839 v -7.438 l -1.922,2.238 c -2.321,2.641 -4.078,2.082 -6.239,-2.078 -1.761,-3.441 -2,-2.402 -2.64,10.719 -1.121,24.398 -7.121,62.719 -14.082,90 -2.641,10.398 -6.078,22 -7.117,24.398 -0.321,0.883 -1.122,2.801 -1.762,4.243 -0.559,1.359 -1.281,2.558 -1.602,2.558 -0.398,0 -0.636,0.641 -0.636,1.36 0,0.722 -0.243,1.121 -0.481,0.8 -0.562,-0.558 2,-9.359 3.039,-10.558 0.32,-0.403 0.641,-1.52 0.641,-2.481 0,-1.039 0.32,-2 0.719,-2.242 0.32,-0.238 0.878,-1.598 1.199,-3.039 0.242,-1.437 1.043,-4.641 1.761,-7.039 2.321,-8.078 7.2,-29.199 9.2,-40 5.281,-28.801 8.32,-62.48 7.441,-82.801 -0.242,-4.879 -0.082,-10.64 0.32,-12.801 0.637,-3.757 0.719,-3.359 1.278,5.602 0.402,5.281 0.961,10.16 1.359,10.801 0.563,0.961 0.641,0.879 0.723,-0.481 0,-1.679 3.039,-5.121 4.558,-5.121 0.563,0 1.68,0.961 2.563,2.082 l 1.68,2.16 v -7.601 c 0,-6.801 -1.602,-28.32 -2.883,-37.442 -1.598,-12 -1.918,-14.476 -2.719,-18.636 -0.398,-2.481 -1.121,-6.481 -1.52,-8.801 -0.718,-4.242 -2.8,-14.563 -4.16,-20 -0.398,-1.602 -1.039,-4.32 -1.441,-6 -0.399,-1.602 -1.68,-6.402 -2.879,-10.563 -1.121,-4.16 -2.398,-8.718 -2.801,-10 -2.48,-9.039 -4.398,-12.796 -8.398,-15.757 -5.121,-3.922 -13.922,-8.161 -19.602,-9.36 -2.398,-0.562 -5.918,-1.281 -7.84,-1.761 -1.839,-0.399 -4.64,-0.719 -6.078,-0.719 -1.519,0 -4.48,-0.321 -6.64,-0.723 -4.563,-0.957 -13.52,-2 -31.039,-3.68 -7.043,-0.718 -16.243,-1.597 -20.403,-2 -4.16,-0.476 -12.879,-0.796 -19.359,-0.796 h -11.68 z m 112.558,17.437 c 0.961,0.801 2.481,4 2.481,5.204 0,0.636 0.32,1.839 0.719,2.636 0.718,1.364 3.839,11.524 5.679,18.563 0.563,2 1.281,4.48 1.602,5.597 0.64,2 1.359,5.442 3.597,16.801 2,10 1.282,12.801 -0.878,3.602 -1.04,-4.403 -2.239,-9.602 -2.719,-11.602 -1.922,-8.238 -6.563,-25.277 -7.281,-26.558 -0.399,-0.801 -0.719,-2.161 -0.719,-2.961 0,-0.879 -0.321,-1.84 -0.801,-2.078 -0.398,-0.243 -0.801,-1.282 -0.801,-2.321 0,-0.961 -0.32,-2.082 -0.719,-2.562 -0.402,-0.399 -0.96,-2.16 -1.199,-3.918 -0.242,-1.762 -0.242,-2.641 0,-2 0.321,0.64 0.797,1.359 1.039,1.597 z" /><path
                                 id="path86"
                                 style="fill:#f8f8f9;fill-opacity:1;fill-rule:nonzero;stroke:none"
                                 d="m 1042.801,104.881 c -8.961,0.559 -21.36,2 -34.403,4 -5.359,0.797 -7.277,1.117 -18.796,3.039 -11.84,2 -30.082,6.559 -34.723,8.719 -5.039,2.402 -10.078,6.723 -10.078,8.641 0,0.64 -0.321,1.121 -0.723,1.121 -1.277,0 -1.68,9.918 -0.797,19.597 2.719,28.801 3.84,61.922 3.84,112.403 0,51.437 -1.199,86.719 -3.84,112.801 -1.043,10 -0.64,17.039 1.117,20.558 3.922,7.918 14.161,12.078 41.602,17.039 2.238,0.403 6,1.121 8.398,1.52 24.243,4.402 42.321,6.402 63.204,6.961 13.199,0.398 14.16,0.32 15.437,-1.121 17.176,-26.344 25.008,-67.844 28.563,-95.36 4.957,-39.437 4.16,-101.039 -1.68,-135.597 -2.723,-16.161 -3.121,-18.161 -6.082,-30 -5.36,-15.926 -12.641,-42.047 -21.84,-54.161 -2.238,-1.121 -13.441,-1.203 -29.199,-0.16 z m 25.679,15.598 c 3.36,2.723 4.743,5.605 8.079,12.723 5.453,11.621 7.722,23.003 11.519,35.199 5.121,16.437 7.32,42.14 8.801,60.398 1.043,13.121 0.84,54.024 -0.719,77.199 -1.972,29.34 -6.969,77.071 -26.719,98.161 -2.242,2.16 -4.082,3.121 -6.8,3.519 -4.161,0.641 -20.719,-0.078 -29.84,-1.277 -20.961,-2.801 -34.641,-4.723 -43.602,-6.403 -2.64,-0.476 -6.801,-1.199 -9.199,-1.597 -15.84,-2.723 -20.559,-4.879 -22.879,-10.242 -1.359,-3.118 -1.359,-4.079 0.481,-27.36 5.039,-65.679 5.039,-133.84 0,-196 -1.922,-23.918 -1.922,-24.16 -0.161,-27.758 2.559,-4.882 6.637,-7.203 15.36,-8.64 15.441,-2.821 31.976,-5.246 46.398,-7.602 14.199,-2.316 38.871,-8.152 49.281,-0.32 z" /><path
                                 id="path88"
                                 style="fill:#f8f8f9;fill-opacity:1;fill-rule:nonzero;stroke:none"
                                 d="m 539.199,121.92 c 0,0.321 1.199,1.602 2.641,2.801 3.762,3.277 4.801,8 3.441,14.559 -5.593,21.004 -10.265,40.593 -13.359,61.121 -0.801,5.437 -2.184,15.98 -2.801,25.84 -0.734,11.722 -1.793,57.898 0.078,72.8 1.547,32.008 8.781,56.368 15.68,85.758 1.441,6.242 1.441,7.039 0.32,10.481 -1.199,3.601 -3.039,5.84 -6.398,7.84 -1.36,0.878 -1.121,0.878 1.597,0.558 4.403,-0.637 18.563,-4 19.122,-4.558 0.32,-0.239 -0.399,-2.961 -1.598,-6 -2.402,-6.481 -3.363,-9.36 -6.242,-19.122 -10.735,-35.789 -13.34,-74.175 -13.52,-110.796 0,-41.442 1.918,-62.801 8.16,-91.204 3.282,-14.796 6.719,-26.636 11.602,-39.519 1.199,-3.039 1.84,-5.84 1.437,-6.238 -3.933,-1.594 -7.785,-2.118 -12.16,-3.039 -2.519,-0.457 -5.781,-1.622 -8,-1.282 z" /><path
                                 id="path90"
                                 style="fill:#f8f8f9;fill-opacity:1;fill-rule:nonzero;stroke:none"
                                 d="m 614.559,128.159 c 0.242,1.761 0.722,1.839 12.64,2.8 38.403,3.039 71.039,4.243 123.84,4.719 44.883,0.402 44.961,0.402 44.961,-1.277 0,-1.52 -0.398,-1.602 -16.961,-1.602 -36.078,-0.16 -129.519,-3.359 -148.641,-5.121 -2.398,-0.238 -7.039,-0.637 -10.238,-0.879 -5.762,-0.398 -5.84,-0.398 -5.601,1.36 z" /><path
                                 id="path92"
                                 style="fill:#f8f8f9;fill-opacity:1;fill-rule:nonzero;stroke:none"
                                 d="m 562.641,128.561 c -0.243,0.801 -1.282,3.199 -2.243,5.437 -6.449,17.094 -11.425,37.286 -13.839,51.602 -4.637,27.281 -5.278,37.52 -5.278,77.199 0.453,39.774 3.199,71.406 13.117,111.199 1.84,5.922 4.161,12.481 6.321,18 l 2.32,6 3.039,-0.078 c 1.762,0 8.723,-0.8 15.524,-1.679 55.437,-7.52 148.957,-10.801 258.558,-9.121 32.238,0.558 64.961,1.281 72.641,1.679 7.679,0.403 16.801,0.801 20.238,0.961 l 6.242,0.238 0.399,-8.398 c 0.242,-4.559 0.64,-8.719 0.879,-9.121 0.242,-0.399 0.8,-5.039 1.121,-10.399 4.242,-63.281 3.441,-168.878 -1.602,-214.48 -0.476,-4.398 -0.719,-8.961 -0.398,-10.16 l 0.398,-2.078 -12.637,0.316 c -6.961,0.16 -15.519,0.723 -19.043,1.121 -10.476,1.281 -53.757,2 -119.199,2 -56.48,0 -75.121,-0.398 -126.398,-2.719 -34,-1.601 -76.321,-5.359 -91.039,-8.16 -5.922,-1.121 -8.563,-0.879 -9.121,0.641 z" /><path
                                 id="path94"
                                 style="fill:#f8f8f9;fill-opacity:1;fill-rule:nonzero;stroke:none"
                                 d="m 926,128.881 c -17.762,1.199 -51.039,2.321 -79.602,2.797 -17.117,0.32 -28.796,0.801 -29.359,1.281 -0.559,0.481 -1.039,1.36 -1.039,2 0,2.719 120.961,-0.879 124.32,-3.757 0.719,-0.563 1.282,-1.524 1.282,-2.082 0,-1.2 -0.161,-1.2 -15.602,-0.239 z" /><path
                                 id="path96"
                                 style="fill:#f8f8f9;fill-opacity:1;fill-rule:nonzero;stroke:none"
                                 d="m 1207.52,132.401 c 0.32,2.801 3.519,13.758 4.558,15.758 0.402,0.8 0.723,2.16 0.723,3.043 0,0.878 0.32,2.238 0.719,3.039 0.402,0.718 1.359,4.238 2.082,7.757 0.636,3.524 1.597,7.524 2,8.883 0.476,1.36 0.796,3.758 0.796,5.36 0,1.597 0.321,2.961 0.723,2.961 0.399,0 0.957,1.918 1.199,4.16 1.282,10.636 1.52,11.84 2.239,11.84 0.8,0 0.722,-0.961 -1.118,-11.204 -0.402,-2.398 -0.961,-6 -1.203,-8 -0.238,-2 -0.718,-3.918 -1.117,-4.32 -0.402,-0.476 -0.723,-1.758 -0.723,-3.039 0,-1.199 -0.32,-2.961 -0.718,-4 -0.399,-1.039 -1.36,-4.719 -2.16,-8.238 -0.719,-3.52 -1.68,-6.723 -2.079,-7.199 -0.32,-0.403 -0.64,-1.922 -0.64,-3.364 0,-1.437 -0.321,-2.636 -0.723,-2.636 -0.316,0 -0.879,-1.364 -1.039,-3.043 -0.238,-1.68 -1.199,-4.637 -2.16,-6.637 -1.438,-3.121 -1.598,-3.203 -1.359,-1.121 z" /><path
                                 id="path98"
                                 style="fill:#f8f8f9;fill-opacity:1;fill-rule:nonzero;stroke:none"
                                 d="m 803.84,132.561 c -5.602,0.238 -6.238,0.48 -6.238,1.84 0,1.519 0.558,1.597 8.878,1.597 7.758,0 8.801,-0.16 8.399,-1.277 -0.238,-0.723 -0.481,-1.601 -0.481,-2 0,-0.402 -0.957,-0.641 -2.16,-0.562 -1.277,0.082 -5.039,0.32 -8.398,0.402 z" /><path
                                 id="path100"
                                 style="fill:#f8f8f9;fill-opacity:1;fill-rule:nonzero;stroke:none"
                                 d="m 1213.039,140.08 c 0.242,1.04 1.52,5.68 2.883,10.321 1.359,4.64 2.476,9.359 2.476,10.558 0,1.2 0.403,2.403 0.801,2.641 0.481,0.238 0.801,1.52 0.801,2.801 0,1.199 0.32,2.398 0.719,2.558 0.32,0.082 1.601,2 2.801,4.243 l 2.082,4 -0.321,-3.602 c -0.402,-4.961 -3.519,-16.719 -6,-22.801 -3.043,-7.359 -5.121,-11.597 -6,-12.16 -0.402,-0.238 -0.48,0.402 -0.242,1.441 z" /><path
                                 id="path102"
                                 style="fill:#f8f8f9;fill-opacity:1;fill-rule:nonzero;stroke:none"
                                 d="m 61.199,143.362 c -1.918,1.918 -4.398,4.078 -5.519,4.879 -1.84,1.281 -4.239,4.558 -3.36,4.558 0.16,0 0.961,-0.558 1.68,-1.359 1.199,-1.199 8.398,-2.16 8.398,-1.121 0,0.32 -0.398,1.922 -0.878,3.679 -1.52,5.84 -1.918,7.442 -5.598,24.161 -3.043,13.839 -6.16,32 -6.801,39.839 -0.242,2.641 -0.723,5.524 -1.121,6.403 -0.398,0.879 -0.879,3.758 -1.121,6.398 -0.16,2.641 -0.879,10.16 -1.598,16.641 -0.883,7.922 -1.043,12.32 -0.48,13.199 0.48,0.883 0.719,1.039 0.801,0.32 0.078,-3.039 4.718,-4.398 7.199,-2.16 1.277,1.121 1.437,0.641 1.918,-7.359 1.922,-30.16 6.242,-70.879 9.203,-87.039 0.398,-2.242 1.359,-8 2.156,-12.961 1.922,-12.559 1.121,-13.84 -4.879,-8.078 z" /><path
                                 id="path104"
                                 style="fill:#f8f8f9;fill-opacity:1;fill-rule:nonzero;stroke:none"
                                 d="m 1220,147.041 c 0,0.321 0.32,0.957 0.719,1.36 0.32,0.48 1.601,4 2.801,8 1.199,3.918 2.48,8.32 2.96,9.679 0.399,1.36 0.719,3.36 0.719,4.559 0,1.121 0.321,2.242 0.723,2.481 0.398,0.242 0.879,2.32 1.199,4.64 0.238,2.32 0.801,6.719 1.277,9.84 6.563,44.879 5.84,118.238 -1.519,159.602 -2.32,12.878 -6.559,28.398 -8.32,30.16 -0.879,0.797 -0.637,2 0.242,1.437 2.32,-1.437 9.519,-15.121 12.16,-23.199 4.879,-14.801 10.078,-74.879 8.961,-104 -0.402,-12.398 -2.723,-41.68 -4.402,-55.602 -0.399,-3.757 -0.961,-8.957 -1.2,-11.597 -0.32,-2.641 -0.8,-5.121 -1.199,-5.52 -0.402,-0.48 -0.723,-1.679 -0.723,-2.883 0,-3.519 -6.476,-19.918 -8.16,-20.636 -0.398,-0.16 -0.636,-0.641 -0.636,-0.961 0,-1.121 -4.321,-8 -4.961,-8 -0.403,0 -0.641,0.32 -0.641,0.64 z" /><path
                                 id="path106"
                                 style="fill:#f8f8f9;fill-opacity:1;fill-rule:nonzero;stroke:none"
                                 d="m 39.039,156.799 c -0.641,2.403 -1.598,15.281 -0.961,13.602 0.242,-0.641 0.801,-1.922 1.203,-2.801 0.481,-0.879 0.719,-4.16 0.559,-7.199 -0.16,-3.84 -0.399,-4.961 -0.801,-3.602 z" /><path
                                 id="path108"
                                 style="fill:#f8f8f9;fill-opacity:1;fill-rule:nonzero;stroke:none"
                                 d="m 47.602,165.041 c -0.321,0.797 -0.403,1.68 -0.082,1.918 0.8,0.801 1.441,-0.32 1.039,-1.918 -0.321,-1.363 -0.321,-1.363 -0.957,0 z" /><path
                                 id="path110"
                                 style="fill:#f8f8f9;fill-opacity:1;fill-rule:nonzero;stroke:none"
                                 d="m 32.961,171.998 c 0,1.524 0.16,2.161 0.398,1.364 0.161,-0.723 0.161,-2 0,-2.801 -0.238,-0.723 -0.398,-0.082 -0.398,1.437 z" /><path
                                 id="path112"
                                 style="fill:#f8f8f9;fill-opacity:1;fill-rule:nonzero;stroke:none"
                                 d="m 47.602,177.838 c -0.321,0.801 -0.403,1.684 -0.082,1.922 0.8,0.801 1.441,-0.32 1.039,-1.922 -0.321,-1.359 -0.321,-1.359 -0.957,0 z" /><path
                                 id="path114"
                                 style="fill:#f8f8f9;fill-opacity:1;fill-rule:nonzero;stroke:none"
                                 d="m 40.559,179.678 c -0.321,0.32 -0.559,1.121 -0.559,1.844 0,0.879 0.238,0.957 0.879,0.316 0.48,-0.476 0.801,-1.277 0.562,-1.84 -0.16,-0.476 -0.562,-0.636 -0.882,-0.32 z" /><path
                                 id="path116"
                                 style="fill:#f8f8f9;fill-opacity:1;fill-rule:nonzero;stroke:none"
                                 d="m 1223.281,180.401 c 0,0.398 0.321,2.238 0.719,4 1.52,6.558 3.121,19.679 4.961,39.597 1.277,13.84 1.277,63.364 0,77.602 -1.602,17.441 -3.359,32 -4.641,38.16 -0.32,1.762 -0.242,2.641 0.399,2.641 0.48,0 0.883,-0.723 0.883,-1.52 0,-0.883 0.398,-1.84 0.796,-2.082 0.481,-0.238 0.801,-1.679 0.801,-3.199 0,-1.52 0.321,-2.879 0.723,-3.121 0.398,-0.238 0.879,-2.559 1.117,-5.039 0.242,-2.559 1.039,-8.961 1.762,-14.238 1.039,-7.204 1.437,-18.403 1.758,-44.641 0.402,-34 0.16,-40.801 -2.239,-59.762 -0.48,-3.758 -1.039,-8.398 -1.199,-10.398 -0.242,-2 -0.723,-4.321 -1.121,-5.199 -0.641,-1.524 -1.039,-3.043 -2.16,-8.641 -0.238,-1.199 -0.719,-2.16 -1.039,-2.16 -0.403,0 -0.879,-0.641 -1.039,-1.442 -0.242,-0.718 -0.403,-1.039 -0.481,-0.558 z" /><path
                                 id="path118"
                                 style="fill:#f8f8f9;fill-opacity:1;fill-rule:nonzero;stroke:none"
                                 d="m 31.68,186.241 c -0.321,2.8 -0.481,5.281 -0.239,5.519 0.719,0.641 1.52,-4.719 1.2,-7.84 -0.243,-2.16 -0.403,-1.679 -0.961,2.321 z" /><path
                                 id="path120"
                                 style="fill:#f8f8f9;fill-opacity:1;fill-rule:nonzero;stroke:none"
                                 d="m 47.441,191.678 c -0.242,0.641 -0.082,1.602 0.481,2.16 0.637,0.641 0.879,0.321 0.879,-1.277 0,-2.402 -0.563,-2.801 -1.36,-0.883 z" /><path
                                 id="path122"
                                 style="fill:#f8f8f9;fill-opacity:1;fill-rule:nonzero;stroke:none"
                                 d="m 46.559,199.202 c 0,1.519 0.16,2.16 0.402,1.359 0.16,-0.723 0.16,-2 0,-2.801 -0.242,-0.719 -0.402,-0.082 -0.402,1.442 z" /><path
                                 id="path124"
                                 style="fill:#f8f8f9;fill-opacity:1;fill-rule:nonzero;stroke:none"
                                 d="m 1223.441,201.202 c 0,2.636 0.161,3.597 0.321,2.16 0.16,-1.442 0.16,-3.602 0,-4.801 -0.16,-1.199 -0.321,0 -0.321,2.641 z" /><path
                                 id="path126"
                                 style="fill:#f8f8f9;fill-opacity:1;fill-rule:nonzero;stroke:none"
                                 d="m 30.16,201.28 c -0.32,0.32 -0.558,1.121 -0.558,1.84 0,0.878 0.238,0.96 0.878,0.32 0.481,-0.481 0.801,-1.281 0.559,-1.84 -0.16,-0.48 -0.559,-0.641 -0.879,-0.32 z" /><path
                                 id="path128"
                                 style="fill:#f8f8f9;fill-opacity:1;fill-rule:nonzero;stroke:none"
                                 d="m 44.961,206.401 c 0,1.519 0.16,2.16 0.398,1.359 0.161,-0.719 0.161,-2 0,-2.801 -0.238,-0.718 -0.398,-0.078 -0.398,1.442 z" /><path
                                 id="path130"
                                 style="fill:#f8f8f9;fill-opacity:1;fill-rule:nonzero;stroke:none"
                                 d="m 1225.039,212.401 c 0,3.039 0.16,4.238 0.32,2.558 0.161,-1.597 0.161,-4.16 0,-5.597 -0.16,-1.364 -0.32,-0.082 -0.32,3.039 z" /><path
                                 id="path132"
                                 style="fill:#f8f8f9;fill-opacity:1;fill-rule:nonzero;stroke:none"
                                 d="m 40,212.401 c 0,0.64 0.398,1.199 0.801,1.199 0.48,0 0.801,-0.559 0.801,-1.199 0,-0.641 -0.321,-1.199 -0.801,-1.199 -0.403,0 -0.801,0.558 -0.801,1.199 z" /><path
                                 id="path134"
                                 style="fill:#f8f8f9;fill-opacity:1;fill-rule:nonzero;stroke:none"
                                 d="m 43.359,214.401 c 0,1.519 0.161,2.16 0.403,1.359 0.16,-0.719 0.16,-2 0,-2.801 -0.242,-0.718 -0.403,-0.078 -0.403,1.442 z" /><path
                                 id="path136"
                                 style="fill:#f8f8f9;fill-opacity:1;fill-rule:nonzero;stroke:none"
                                 d="m 28.641,214.639 c -0.403,0.801 -0.641,2.801 -0.563,4.402 0,2.797 0.082,2.797 0.801,0.957 0.48,-1.039 0.723,-3.039 0.562,-4.398 -0.16,-1.922 -0.32,-2.078 -0.8,-0.961 z" /><path
                                 id="path138"
                                 style="fill:#f8f8f9;fill-opacity:1;fill-rule:nonzero;stroke:none"
                                 d="m 39.359,221.6 c 0,1.52 0.161,2.16 0.403,1.359 0.16,-0.718 0.16,-2 0,-2.8 -0.242,-0.719 -0.403,-0.079 -0.403,1.441 z" /><path
                                 id="path140"
                                 style="fill:#f8f8f9;fill-opacity:1;fill-rule:nonzero;stroke:none"
                                 d="m 1226.238,224.959 c -0.16,1.442 0,3.68 0.242,5.039 0.399,1.762 0.559,1.043 0.641,-2.636 0.078,-5.364 -0.32,-6.641 -0.883,-2.403 z" /><path
                                 id="path142"
                                 style="fill:#f8f8f9;fill-opacity:1;fill-rule:nonzero;stroke:none"
                                 d="m 32.16,231.998 c 0,1.524 0.16,2.161 0.399,1.364 0.16,-0.723 0.16,-2 0,-2.801 -0.239,-0.723 -0.399,-0.082 -0.399,1.437 z" /><path
                                 id="path144"
                                 style="fill:#f8f8f9;fill-opacity:1;fill-rule:nonzero;stroke:none"
                                 d="m 37.84,232.799 c 0,2 0.16,2.801 0.32,1.762 0.16,-0.961 0.16,-2.563 0,-3.602 -0.16,-0.961 -0.32,-0.16 -0.32,1.84 z" /><path
                                 id="path146"
                                 style="fill:#f8f8f9;fill-opacity:1;fill-rule:nonzero;stroke:none"
                                 d="m 27.039,231.998 c -0.32,1.122 -0.559,3.762 -0.559,6 l 0.079,4 0.722,-3.597 c 0.399,-2 0.641,-4.723 0.559,-6 -0.238,-2.403 -0.238,-2.403 -0.801,-0.403 z" /><path
                                 id="path148"
                                 style="fill:#f8f8f9;fill-opacity:1;fill-rule:nonzero;stroke:none"
                                 d="m 40,234.561 c 0,1.519 0.16,1.598 0.801,0.641 1.039,-1.524 1.039,-2.403 0,-2.403 -0.403,0 -0.801,0.801 -0.801,1.762 z" /><path
                                 id="path150"
                                 style="fill:#f8f8f9;fill-opacity:1;fill-rule:nonzero;stroke:none"
                                 d="m 30.641,245.6 c 0,2 0.16,2.801 0.32,1.762 0.16,-0.961 0.16,-2.563 0,-3.602 -0.16,-0.961 -0.32,-0.16 -0.32,1.84 z" /><path
                                 id="path152"
                                 style="fill:#f8f8f9;fill-opacity:1;fill-rule:nonzero;stroke:none"
                                 d="m 36.238,246.401 c 0,2 0.16,2.801 0.321,1.758 0.16,-0.957 0.16,-2.559 0,-3.598 -0.161,-0.961 -0.321,-0.16 -0.321,1.84 z" /><path
                                 id="path154"
                                 style="fill:#f8f8f9;fill-opacity:1;fill-rule:nonzero;stroke:none"
                                 d="m 39.441,249.202 c 0,2.636 0.161,3.597 0.321,2.16 0.16,-1.442 0.16,-3.602 0,-4.801 -0.16,-1.199 -0.321,0 -0.321,2.641 z" /><path
                                 id="path156"
                                 style="fill:#f8f8f9;fill-opacity:1;fill-rule:nonzero;stroke:none"
                                 d="m 25.84,250.799 c 0,2.16 0.16,3.039 0.32,1.762 0.16,-1.199 0.16,-2.961 0,-4 -0.16,-0.961 -0.32,0 -0.32,2.238 z" /><path
                                 id="path158"
                                 style="fill:#f8f8f9;fill-opacity:1;fill-rule:nonzero;stroke:none"
                                 d="m 24.879,262.561 c 0.082,4.078 0.32,9.437 0.723,11.84 0.398,3.121 0.558,0.961 0.476,-7.36 -0.078,-6.562 -0.316,-11.839 -0.637,-11.839 -0.402,0 -0.64,3.359 -0.562,7.359 z" /><path
                                 id="path160"
                                 style="fill:#f8f8f9;fill-opacity:1;fill-rule:nonzero;stroke:none"
                                 d="m 1219.359,256.159 c -1.121,1.121 -1.281,5.441 -0.16,5.441 1.039,0 2.403,-2.719 2.403,-4.719 0,-1.922 -0.801,-2.16 -2.243,-0.722 z" /><path
                                 id="path162"
                                 style="fill:#f8f8f9;fill-opacity:1;fill-rule:nonzero;stroke:none"
                                 d="m 49.039,261.041 c -2.32,1.039 -2.32,2.637 -0.078,3.2 2.238,0.64 2.398,0.398 2.078,-2.082 -0.238,-1.68 -0.48,-1.84 -2,-1.118 z" /><path
                                 id="path164"
                                 style="fill:#f8f8f9;fill-opacity:1;fill-rule:nonzero;stroke:none"
                                 d="m 1227.199,262.881 c 0,1.117 0.321,1.84 0.801,1.52 0.48,-0.242 0.801,-1.199 0.801,-2.082 0,-0.797 -0.321,-1.52 -0.801,-1.52 -0.398,0 -0.801,0.961 -0.801,2.082 z" /><path
                                 id="path166"
                                 style="fill:#f8f8f9;fill-opacity:1;fill-rule:nonzero;stroke:none"
                                 d="m 44.641,264.881 c -0.563,1.438 0.718,31.36 1.437,34.321 0.32,1.117 0.801,4.476 1.203,7.597 0.957,7.68 2.078,15.199 3.039,20 0.399,2.16 1.121,5.762 1.602,8 1.277,6.961 4.078,19.039 5.277,23.121 0.641,2.078 1.039,4.16 0.801,4.481 -0.238,0.32 0.16,0.801 0.801,1.121 0.719,0.238 1.199,1.437 1.199,2.797 0,1.281 0.398,2.64 0.801,2.883 0.48,0.238 0.801,1.519 0.801,2.796 0,1.282 0.398,2.563 0.796,2.801 1.204,0.723 0.961,4.481 -0.476,6.082 -1.121,1.199 -1.043,1.52 1.117,3.039 1.359,0.961 2.801,1.68 3.281,1.68 1.121,0 1.121,-4.078 0.078,-9.68 -0.476,-2.398 -1.199,-6.879 -1.679,-9.922 C 64.238,362.881 63.52,358.08 63.121,355.202 59.441,330.639 56.48,302.08 54.719,274.159 54.398,269.44 54,265.6 53.84,265.6 c -0.238,0 -0.879,0.559 -1.52,1.199 -2.082,2.082 -5.84,0.961 -6.879,-1.918 -0.32,-1.043 -0.402,-1.043 -0.8,0 z" /><path
                                 id="path168"
                                 style="fill:#f8f8f9;fill-opacity:1;fill-rule:nonzero;stroke:none"
                                 d="m 1218.398,266.08 c 0,2.239 1.922,4.719 3.122,4 1.359,-0.878 -0.961,-6.082 -2.641,-6.082 -0.238,0 -0.481,0.961 -0.481,2.082 z" /><path
                                 id="path170"
                                 style="fill:#f8f8f9;fill-opacity:1;fill-rule:nonzero;stroke:none"
                                 d="m 39.441,276.799 c 0,2.879 0.161,4 0.321,2.563 0.16,-1.364 0.16,-3.762 0,-5.203 -0.16,-1.36 -0.321,-0.239 -0.321,2.64 z" /><path
                                 id="path172"
                                 style="fill:#f8f8f9;fill-opacity:1;fill-rule:nonzero;stroke:none"
                                 d="m 30.641,279.6 c 0,2.16 0.16,3.039 0.32,1.762 0.16,-1.203 0.16,-2.961 0,-4 -0.16,-0.961 -0.32,0 -0.32,2.238 z" /><path
                                 id="path174"
                                 style="fill:#f8f8f9;fill-opacity:1;fill-rule:nonzero;stroke:none"
                                 d="m 36.238,278.799 c 0,1.762 0.16,2.403 0.321,1.36 0.16,-0.957 0.16,-2.399 0,-3.2 -0.239,-0.718 -0.399,0.082 -0.321,1.84 z" /><path
                                 id="path176"
                                 style="fill:#f8f8f9;fill-opacity:1;fill-rule:nonzero;stroke:none"
                                 d="m 26.559,287.202 c 0,2.398 0.32,5.277 0.64,6.398 0.563,1.84 0.641,1.762 0.641,-0.801 0,-1.519 -0.238,-4.398 -0.559,-6.398 l -0.64,-3.602 z" /><path
                                 id="path178"
                                 style="fill:#f8f8f9;fill-opacity:1;fill-rule:nonzero;stroke:none"
                                 d="m 37.84,292.799 c 0,2 0.16,2.801 0.32,1.762 0.16,-0.961 0.16,-2.563 0,-3.602 -0.16,-0.961 -0.32,-0.16 -0.32,1.84 z" /><path
                                 id="path180"
                                 style="fill:#f8f8f9;fill-opacity:1;fill-rule:nonzero;stroke:none"
                                 d="m 40,291.522 c 0,1.117 0.398,2.078 0.801,2.078 0.48,0 0.801,-0.719 0.801,-1.52 0,-0.878 -0.321,-1.839 -0.801,-2.082 C 40.32,289.678 40,290.401 40,291.522 Z" /><path
                                 id="path182"
                                 style="fill:#f8f8f9;fill-opacity:1;fill-rule:nonzero;stroke:none"
                                 d="m 32.16,294.401 c 0,1.519 0.16,2.16 0.399,1.359 0.16,-0.719 0.16,-2 0,-2.801 -0.239,-0.718 -0.399,-0.078 -0.399,1.442 z" /><path
                                 id="path184"
                                 style="fill:#f8f8f9;fill-opacity:1;fill-rule:nonzero;stroke:none"
                                 d="m 1226.238,296.08 c -0.238,1.442 -0.16,3.68 0.242,5.04 0.399,2 0.559,1.441 0.641,-2.559 0.078,-5.359 -0.32,-6.481 -0.883,-2.481 z" /><path
                                 id="path186"
                                 style="fill:#f8f8f9;fill-opacity:1;fill-rule:nonzero;stroke:none"
                                 d="m 39.359,303.202 c 0,1.519 0.161,2.16 0.403,1.359 0.16,-0.723 0.16,-2 0,-2.801 -0.242,-0.719 -0.403,-0.082 -0.403,1.442 z" /><path
                                 id="path188"
                                 style="fill:#f8f8f9;fill-opacity:1;fill-rule:nonzero;stroke:none"
                                 d="m 28.078,307.362 c -0.078,2.078 0.32,4 0.723,4.238 0.961,0.641 0.961,-4.16 0,-6.398 -0.481,-1.204 -0.723,-0.641 -0.723,2.16 z" /><path
                                 id="path190"
                                 style="fill:#f8f8f9;fill-opacity:1;fill-rule:nonzero;stroke:none"
                                 d="m 1225.039,312.799 c 0,2.879 0.16,4 0.32,2.563 0.161,-1.364 0.161,-3.762 0,-5.203 -0.16,-1.36 -0.32,-0.239 -0.32,2.64 z" /><path
                                 id="path192"
                                 style="fill:#f8f8f9;fill-opacity:1;fill-rule:nonzero;stroke:none"
                                 d="m 1223.441,324.799 c 0,2.879 0.161,4 0.321,2.563 0.16,-1.364 0.16,-3.762 0,-5.203 -0.16,-1.36 -0.321,-0.239 -0.321,2.64 z" /><path
                                 id="path194"
                                 style="fill:#f8f8f9;fill-opacity:1;fill-rule:nonzero;stroke:none"
                                 d="m 29.602,323.12 c 0,0.96 0.398,1.679 0.796,1.679 0.481,0 0.801,-0.48 0.801,-1.121 0,-0.637 -0.32,-1.437 -0.801,-1.68 -0.398,-0.238 -0.796,0.243 -0.796,1.122 z" /><path
                                 id="path196"
                                 style="fill:#f8f8f9;fill-opacity:1;fill-rule:nonzero;stroke:none"
                                 d="m 37.762,331.202 c 0,1.519 0.16,2.16 0.398,1.359 0.16,-0.723 0.16,-2 0,-2.801 -0.238,-0.719 -0.398,-0.082 -0.398,1.442 z" /><path
                                 id="path198"
                                 style="fill:#f8f8f9;fill-opacity:1;fill-rule:nonzero;stroke:none"
                                 d="m 1221.602,333.838 c 0,2.481 -0.321,4.563 -0.723,4.563 -0.399,0 -0.879,1.679 -1.117,3.758 -0.242,2.16 -0.801,5.441 -1.203,7.441 -0.399,2 -1.2,5.922 -1.758,8.801 -0.563,2.879 -1.281,5.84 -1.68,6.558 -0.402,0.801 -0.723,2.481 -0.723,3.84 0,1.281 -0.32,2.403 -0.796,2.403 -0.403,0 -0.801,1.117 -0.801,2.398 0,1.359 -0.321,3.039 -0.723,3.84 -1.758,3.359 -5.758,18.801 -4.558,17.68 0.96,-0.879 3.679,-9.04 3.679,-10.879 0,-0.961 0.403,-2 0.801,-2.243 0.48,-0.238 0.801,-1.519 0.801,-2.878 0,-1.282 0.32,-2.321 0.719,-2.321 0.402,0 0.878,-1.359 1.121,-3.039 0.238,-1.601 1.039,-5.281 1.757,-8.16 0.723,-2.879 1.524,-6.32 1.68,-7.602 0.242,-1.359 0.723,-3.117 1.121,-4 0.403,-0.878 0.879,-3.039 1.121,-4.796 0.16,-1.762 0.961,-6.641 1.602,-10.723 0.879,-5.117 1.039,-7.84 0.476,-8.399 -0.558,-0.558 -0.796,0.719 -0.796,3.758 z" /><path
                                 id="path200"
                                 style="fill:#f8f8f9;fill-opacity:1;fill-rule:nonzero;stroke:none"
                                 d="m 47.199,333.12 c 0,0.64 0.403,1.441 0.801,1.679 0.48,0.242 0.801,-0.238 0.801,-1.121 0,-0.957 -0.321,-1.68 -0.801,-1.68 -0.398,0 -0.801,0.481 -0.801,1.122 z" /><path
                                 id="path202"
                                 style="fill:#f8f8f9;fill-opacity:1;fill-rule:nonzero;stroke:none"
                                 d="m 31.281,335.202 c 0,1.117 0.321,3.597 0.641,5.597 l 0.637,3.602 0.16,-4.403 c 0,-2.398 -0.321,-4.957 -0.719,-5.597 -0.641,-0.961 -0.801,-0.801 -0.719,0.801 z" /><path
                                 id="path204"
                                 style="fill:#f8f8f9;fill-opacity:1;fill-rule:nonzero;stroke:none"
                                 d="m 48.961,339.202 c 0,1.519 0.16,2.16 0.398,1.359 0.161,-0.723 0.161,-2 0,-2.801 -0.238,-0.719 -0.398,-0.082 -0.398,1.442 z" /><path
                                 id="path206"
                                 style="fill:#f8f8f9;fill-opacity:1;fill-rule:nonzero;stroke:none"
                                 d="m 47.199,346.721 c 0,0.641 0.403,1.438 0.801,1.68 0.48,0.238 0.801,-0.242 0.801,-1.121 0,-0.961 -0.321,-1.68 -0.801,-1.68 -0.398,0 -0.801,0.48 -0.801,1.121 z" /><path
                                 id="path208"
                                 style="fill:#f8f8f9;fill-opacity:1;fill-rule:nonzero;stroke:none"
                                 d="m 1223.199,352.721 c -1.121,2.238 -2.238,4.078 -2.558,4.078 -0.403,0 -0.641,1.039 -0.641,2.321 0,1.359 -0.32,2.64 -0.801,2.878 -0.398,0.243 -0.801,1.442 -0.801,2.563 0,1.199 -0.32,3.199 -0.796,4.559 -0.403,1.359 -1.364,4.64 -2.082,7.281 -0.719,2.64 -1.68,5.758 -2.079,6.961 -1.839,4.879 0.161,3.84 2.559,-1.364 4.398,-9.519 5.359,-12.32 8,-23.117 2.238,-9.121 1.922,-11.761 -0.801,-6.16 z" /><path
                                 id="path210"
                                 style="fill:#f8f8f9;fill-opacity:1;fill-rule:nonzero;stroke:none"
                                 d="m 32.961,352.799 c 0,1.52 0.16,2.16 0.398,1.36 0.161,-0.719 0.161,-2 0,-2.797 -0.238,-0.723 -0.398,-0.082 -0.398,1.437 z" /><path
                                 id="path212"
                                 style="fill:#f8f8f9;fill-opacity:1;fill-rule:nonzero;stroke:none"
                                 d="m 38.16,360.799 c 0.641,9.199 1.762,11.68 1.762,3.922 0.078,-3.281 -0.242,-6.32 -0.641,-6.801 -0.402,-0.398 -0.883,-1.441 -1.121,-2.32 -0.238,-0.879 -0.238,1.441 0,5.199 z" /><path
                                 id="path214"
                                 style="fill:#f8f8f9;fill-opacity:1;fill-rule:nonzero;stroke:none"
                                 d="m 33.68,360.881 c 0,2.399 0.32,5.918 0.718,7.918 0.481,2.563 0.563,1.36 0.243,-4 -0.481,-8.398 -1.039,-10.801 -0.961,-3.918 z" /><path
                                 id="path216"
                                 style="fill:#f8f8f9;fill-opacity:1;fill-rule:nonzero;stroke:none"
                                 d="m 47.199,359.6 c 0,0.641 0.403,1.199 0.801,1.199 0.48,0 0.801,-0.558 0.801,-1.199 0,-0.641 -0.321,-1.199 -0.801,-1.199 -0.398,0 -0.801,0.558 -0.801,1.199 z" /><path
                                 id="path218"
                                 style="fill:#f8f8f9;fill-opacity:1;fill-rule:nonzero;stroke:none"
                                 d="m 41.281,370.959 c -0.242,2.563 -0.64,6.243 -0.961,8.161 -0.48,3.359 -0.242,4.48 2.641,13.679 1.117,3.52 7.277,16.801 8.238,17.602 0.242,0.238 1.121,1.758 2,3.437 0.879,1.684 2.242,3.762 3.039,4.563 0.723,0.879 1.364,1.918 1.364,2.398 0,0.403 0.238,0.801 0.636,0.801 0.321,0 1.203,0.961 1.922,2.16 1.039,1.68 1.442,1.84 1.442,0.801 0,-0.723 -0.243,-1.359 -0.641,-1.359 -0.32,0 -1.281,-1.282 -2.082,-2.801 C 58,418.881 57.039,417.6 56.641,417.6 56.32,417.6 56,417.12 56,416.561 c 0,-0.563 -0.719,-1.84 -1.602,-2.723 -0.796,-0.957 -1.757,-2.718 -2.078,-4 -0.48,-2.078 -0.32,-2 1.758,0.961 1.203,1.762 2.481,3.281 2.883,3.442 0.32,0.16 0.641,0.8 0.641,1.359 0,0.559 0.238,1.199 0.636,1.359 0.321,0.082 1.684,1.84 2.961,3.84 8.242,12.321 24.961,28 37.84,35.442 2.801,1.679 5.199,2.961 5.359,2.961 0.243,0 2.243,0.878 4.563,1.918 2.32,1.039 4.961,2.16 5.84,2.558 1.519,0.563 1.519,0.641 -0.321,0.961 -1.039,0.16 -2.242,-0.078 -2.718,-0.559 -0.481,-0.48 -1.364,-0.878 -1.922,-0.878 -1.36,0 -10.16,-4.161 -10.481,-4.961 -0.16,-0.321 -0.64,-0.641 -1.039,-0.641 -0.398,0 -2.16,-0.879 -3.84,-2 -2.96,-2 -3.921,-2.32 -10,-3.359 -2.242,-0.321 -2.96,-0.243 -2.558,0.398 0.316,0.563 1.117,0.961 1.758,0.961 0.64,0 1.359,0.559 1.679,1.281 0.321,0.957 0.641,1.039 1.121,0.239 0.481,-0.801 0.801,-0.801 1.84,0 0.641,0.558 1.602,0.8 2.078,0.48 0.563,-0.32 1.122,0.16 1.364,1.121 0.238,0.957 1.039,1.68 1.918,1.68 0.879,0 1.519,0.32 1.519,0.801 0,0.398 0.723,0.796 1.602,0.796 0.879,0 1.597,0.321 1.597,0.801 0,0.403 0.723,0.801 1.524,0.801 0.879,0 1.84,0.32 2.078,0.801 0.238,0.398 1.121,0.801 2,0.801 0.801,0 2.801,0.718 4.559,1.519 6.722,3.359 18,7.277 20.882,7.277 0.797,0 1.758,0.321 2.239,0.723 0.398,0.399 2.16,0.879 3.922,1.117 1.757,0.242 5.039,0.801 7.199,1.282 5.597,1.121 25.277,4.082 27.199,4.082 0.344,-1.149 -3.281,-2.481 -5.359,-3.282 -5.95,-2.211 -9.563,-3.929 -12.161,-4.64 -2.003,-0.547 -4.96,-1.758 -6.64,-2.641 -1.68,-0.879 -5.68,-1.918 -9.039,-2.32 -7.602,-0.797 -12.16,-1.758 -17.199,-3.52 -5.442,-1.84 -16.243,-7.679 -19.364,-10.398 -0.476,-0.403 -1.918,-1.602 -3.199,-2.563 -14,-10.718 -33.68,-38.476 -41.84,-59.039 -2.48,-6.238 -3.277,-8.961 -3.039,-10.879 0.16,-1.519 -0.48,-2.961 -2.16,-4.879 -1.359,-1.441 -3.441,-4 -4.719,-5.679 -1.281,-1.602 -2.562,-2.961 -2.883,-2.961 -0.398,0 -0.878,2.078 -1.117,4.558 z m 77.918,94.641 c 0,0.398 -0.558,0.801 -1.199,0.801 -0.641,0 -1.199,-0.403 -1.199,-0.801 0,-0.48 0.558,-0.801 1.199,-0.801 0.641,0 1.199,0.321 1.199,0.801 z" /><path
                                 id="path220"
                                 style="fill:#f8f8f9;fill-opacity:1;fill-rule:nonzero;stroke:none"
                                 d="m 52,373.12 c 0,0.242 1.52,1.921 3.281,3.679 4.078,3.922 6.321,4.242 6.321,0.801 0,-2.238 -0.243,-2.398 -2.801,-2.398 -1.602,0 -3.762,-0.563 -4.801,-1.282 -1.121,-0.718 -2,-1.121 -2,-0.8 z" /><path
                                 id="path222"
                                 style="fill:#f8f8f9;fill-opacity:1;fill-rule:nonzero;stroke:none"
                                 d="m 35.359,378.401 c 0,1.519 0.243,3.519 0.641,4.398 0.641,1.442 0.719,1.442 0.641,-0.398 0,-1.121 -0.321,-3.121 -0.641,-4.403 L 35.359,375.6 Z" /><path
                                 id="path224"
                                 style="fill:#f8f8f9;fill-opacity:1;fill-rule:nonzero;stroke:none"
                                 d="m 36.801,388.319 c 0,0.64 0.398,1.441 0.801,1.679 0.476,0.243 0.796,-0.078 0.796,-0.718 0,-0.641 -0.32,-1.442 -0.796,-1.68 -0.403,-0.238 -0.801,0.078 -0.801,0.719 z" /><path
                                 id="path226"
                                 style="fill:#f8f8f9;fill-opacity:1;fill-rule:nonzero;stroke:none"
                                 d="m 718,390.08 c -41.359,1.36 -98.641,4.481 -102.16,5.52 -0.801,0.32 -1.442,1.199 -1.442,2 0,1.359 0.481,1.441 3.84,1.199 13.121,-1.277 28.242,-2.078 54.961,-3.199 58.879,-2.238 77.84,-2.801 100.242,-2.801 21.598,0 22.559,-0.078 22.559,-1.519 0,-0.801 -0.559,-1.758 -1.281,-2 -2,-0.719 -41.52,-0.321 -76.719,0.8 z" /><path
                                 id="path228"
                                 style="fill:#f8f8f9;fill-opacity:1;fill-rule:nonzero;stroke:none"
                                 d="m 798.16,389.362 c -0.32,0.238 -0.558,1.199 -0.558,2 0,1.277 0.796,1.437 8.32,1.437 8.398,0 9.68,-0.398 8.797,-2.719 -0.399,-1.039 -1.918,-1.281 -8.239,-1.281 -4.32,0 -8.082,0.242 -8.32,0.563 z" /><path
                                 id="path230"
                                 style="fill:#f8f8f9;fill-opacity:1;fill-rule:nonzero;stroke:none"
                                 d="m 816.641,390.159 c -0.563,0.64 -0.641,1.363 -0.161,1.839 0.399,0.403 14.559,1.122 31.52,1.602 34.48,0.961 82.961,2.961 89.441,3.762 3.36,0.398 4.161,0.238 4.161,-0.723 0,-2.801 -2.403,-3.359 -19.122,-4.32 -9.039,-0.559 -32.16,-1.36 -51.281,-1.84 -19.121,-0.481 -39.039,-1.039 -44.16,-1.199 -7.359,-0.16 -9.598,0 -10.398,0.879 z" /><path
                                 id="path232"
                                 style="fill:#f8f8f9;fill-opacity:1;fill-rule:nonzero;stroke:none"
                                 d="m 601.199,396.561 c -4.961,0.559 -6,1.039 -6,2.641 0,1.839 -0.64,1.839 8.403,0.718 7.039,-0.879 9.597,-1.761 8.718,-3.199 -0.398,-0.723 -6.242,-0.801 -11.121,-0.16 z" /><path
                                 id="path234"
                                 style="fill:#f8f8f9;fill-opacity:1;fill-rule:nonzero;stroke:none"
                                 d="m 685.793,427.409 c -1.246,5.046 -2.91,8.429 -4.672,12.992 -1.199,3.039 -3.441,7.84 -4.883,10.64 -1.437,2.797 -2.636,5.84 -2.636,6.797 0,2.242 -4.082,15.364 -5.84,18.723 -0.801,1.437 -1.364,2.961 -1.364,3.437 0,0.723 29.524,0.883 112.161,0.641 89.121,-0.16 110.343,-1.148 112.402,0.723 1.703,1.547 27.391,0.043 32.398,-1.442 5.004,-1.48 10.036,-1.539 14.243,-2.398 4.636,-0.883 10.753,-2.133 12.128,-2.629 6.727,-2.41 8.227,-2.66 14.59,-6.813 2.368,-1.546 2.641,-9.921 1.121,-12.878 -1.043,-1.922 -1.441,-1.5 -6.64,-1.762 -16.774,-0.848 -29.551,-1.039 -41.199,-0.719 -31.84,0.957 -162.723,3.039 -212.801,3.438 -18.403,0.16 -26.266,0.64 -28.903,0.742 -1.14,0.043 -2.996,-2.867 2.321,-2.5 l 16.422,-0.403 0.961,-4 c 0.558,-2.238 1.597,-7.597 2.32,-12 0.867,-6.367 2.848,-12.929 2.879,-19.199 v -4.398 c -11.336,-0.364 -12.211,1.679 -15.008,13.008 z m 233.328,38.269 c 8.559,1.363 8.719,1.442 10.957,3.363 11.762,10.161 -34.316,16.481 -51.039,7.039 -3.519,-1.921 -2.719,-4.402 2.16,-6.32 3.84,-1.519 14.082,-3.359 18.801,-3.441 6.914,-0.625 14.605,-1.364 19.121,-0.641 z" /><path
                                 id="path236"
                                 style="fill:#f8f8f9;fill-opacity:1;fill-rule:nonzero;stroke:none"
                                 d="m 899.281,469.12 c -4.16,0.48 -7.679,1.281 -7.84,1.679 -0.48,1.602 4.481,2.961 9.2,2.481 9.437,-0.879 12.078,-1.442 12.48,-2.641 1.117,-2.879 -0.562,-3.039 -13.84,-1.519 z" /><path
                                 id="path238"
                                 style="fill:#f8f8f9;fill-opacity:1;fill-rule:nonzero;stroke:none"
                                 d="m 915.281,470.959 c -1.441,3.442 -4.082,4.243 -14.16,4.243 -8.562,0 -8.961,-0.082 -10.961,-2.082 -1.84,-1.84 -2.48,-2 -5.039,-1.442 -8,1.922 1.598,5.043 17.359,5.684 14.079,0.558 15.918,0.238 15.918,-2.801 -0.078,-1.199 -0.558,-3.039 -1.117,-4 l -1.043,-1.922 z" /><path
                                 id="path240"
                                 style="fill:#f8f8f9;fill-opacity:1;fill-rule:nonzero;stroke:none"
                                 d="m 919.922,469.28 c -0.242,2.242 0.316,6.398 0.957,6.8 3.848,0.454 10.523,-3.601 7.199,-5.601 -2.156,-1.199 -8.078,-2 -8.156,-1.199 z" /><path
                                 id="path242"
                                 style="fill:#f8f8f9;fill-opacity:1;fill-rule:nonzero;stroke:none"
                                 d="m 48.801,414.561 c 0,1.277 2.48,6.078 3.519,7.039 2,1.602 1.52,-0.32 -0.8,-3.762 -2.239,-3.359 -2.719,-3.918 -2.719,-3.277 z" /><path
                                 id="path244"
                                 style="fill:#f8f8f9;fill-opacity:1;fill-rule:nonzero;stroke:none"
                                 d="m 677.602,414.959 c -0.641,0.161 -2.563,2.961 -4.243,6.243 -4.718,9.117 -13.918,23.437 -18.238,28.558 -2.16,2.481 -3.68,4.641 -3.359,4.801 0.398,0.16 4.957,0.16 10.16,-0.082 l 9.598,-0.481 2.878,-5.679 c 3.442,-6.481 7.5,-17.981 8.801,-22.078 0.985,-3.094 2.18,-5.098 3.199,-9.52 0,-2.32 -0.078,-2.402 -3.757,-2.16 -2.161,0.078 -4.403,0.238 -5.039,0.398 z" /><path
                                 id="path246"
                                 style="fill:#f8f8f9;fill-opacity:1;fill-rule:nonzero;stroke:none"
                                 d="m 52.32,424.159 c -0.32,0.48 -0.242,0.64 0.239,0.402 0.882,-0.563 5.203,2.961 4.48,3.758 -0.238,0.242 0.082,0.48 0.801,0.48 1.199,0 1.121,-0.398 -0.399,-2.801 -1.839,-2.796 -4.082,-3.597 -5.121,-1.839 z" /><path
                                 id="path248"
                                 style="fill:#f8f8f9;fill-opacity:1;fill-rule:nonzero;stroke:none"
                                 d="m 62.398,426.241 c 0,0.879 2.161,3.359 2.961,3.359 0.243,0 -0.16,-0.801 -1.039,-1.84 -0.8,-0.961 -1.601,-1.922 -1.679,-2.082 -0.161,-0.156 -0.243,0.082 -0.243,0.563 z" /><path
                                 id="path250"
                                 style="fill:#f8f8f9;fill-opacity:1;fill-rule:nonzero;stroke:none"
                                 d="m 470,446.401 c -1.281,0.32 -6,1.519 -10.398,2.719 -4.403,1.199 -12.801,3.441 -18.723,4.96 -5.918,1.52 -11.039,2.961 -11.438,3.2 -1.441,0.961 0.399,1.922 3.598,1.922 3.52,0 8.961,2.636 8.16,4 -0.238,0.398 -1.597,0.238 -3.199,-0.481 -1.52,-0.641 -6.078,-1.441 -10.16,-1.922 -19.199,-1.918 -22.719,-1.039 -29.039,7.602 -2.071,2.601 -3.723,4.769 -5.199,7.597 l 12.558,0.161 c 6.961,0.082 13.762,0.242 15.039,0.32 9.446,-0.012 20.899,0.621 24.285,0.851 -1.832,-3.281 -3.05,-6.003 -3.882,-8.449 -1.282,-3.922 -0.321,-5.203 4.878,-6.48 3.68,-0.961 24.321,-0.641 29.68,0.398 3.918,0.723 4.879,2 7.039,9.36 1.012,2.886 2.727,5.16 2.727,5.16 l 23.515,0.281 c 33.438,0.078 79.52,1.359 80.079,2.16 0.242,0.481 2.16,1.281 4.242,1.918 4.398,1.281 4.078,2.082 -0.961,2.563 -2.801,0.238 -2.403,0.32 1.84,0.398 2.961,0.082 5.359,-0.078 5.359,-0.48 -0.078,-1.52 -1.762,-2.879 -5.602,-4.239 -4.718,-1.679 -6.398,-2.8 -6.398,-4.48 0,-2.641 4.16,-4.399 14.16,-5.84 7.918,-1.121 28.641,-0.961 33.121,0.238 4.559,1.203 7.918,3.602 7.918,5.684 0,1.758 -3.84,5.277 -5.758,5.277 -1.363,0 -3.519,2.961 -2.8,3.68 0.48,0.48 89.519,0.402 90.078,-0.078 0.16,-0.242 -19.52,-0.403 -43.758,-0.403 -28.883,0 -44.16,-0.238 -44.16,-0.796 0,-0.481 0.719,-0.801 1.597,-0.801 0.883,0 1.602,-0.321 1.602,-0.723 0,-1.437 3.039,-1.84 12.801,-1.758 l 10.078,0.16 2.16,-4.64 c 2.723,-5.84 5.602,-14.961 5.199,-16.641 -0.238,-1.199 -7.519,-1.277 -75.437,-1.277 -92.641,0.078 -124.879,0.637 -127.36,2.156 -2.562,1.602 -7.519,1.363 -9.839,-0.476 l -2,-1.602 h 5.277 c 4.402,0 5.519,-0.32 6.883,-1.84 1.84,-2.082 6.636,-9.039 6.636,-9.68 0,-0.558 -1.277,-0.48 -4.398,0.321 z" /><path
                                 id="path252"
                                 style="fill:#f8f8f9;fill-opacity:1;fill-rule:nonzero;stroke:none"
                                 d="m 453.199,464.561 c -7.199,0.344 -9.199,0.801 -9.199,2.16 0,1.438 6.73,14.152 9.68,18.481 4.25,6.23 13.109,13.539 19.922,16.558 7.269,3.223 15.027,4.836 14.796,3.121 -0.285,-2.156 -1.214,-3.332 -2,-5.519 -1.113,-3.121 -2.054,-5.371 -3.597,-10.16 -1.578,-4.891 -1.957,-5.219 -3.602,-10.403 -1.851,-5.836 -1.832,-9.34 -5.039,-13.039 -0.933,-1.078 -13.117,-1.574 -20.961,-1.199 z" /><path
                                 id="path254"
                                 style="fill:#f8f8f9;fill-opacity:1;fill-rule:nonzero;stroke:none"
                                 d="m 609.199,471.76 c -6.238,0.32 -7.277,0.719 -6.078,2.16 1.199,1.442 7.199,2.078 14.481,1.442 5.437,-0.481 6,-0.723 6.238,-2.403 0.32,-1.918 -0.559,-2 -14.641,-1.199 z" /><path
                                 id="path256"
                                 style="fill:#f8f8f9;fill-opacity:1;fill-rule:nonzero;stroke:none"
                                 d="m 626.801,473.6 c -0.879,2.641 -3.602,3.762 -10.321,4.238 -7.839,0.563 -13.839,-0.476 -15.761,-2.718 -1.039,-1.2 -2.16,-1.598 -4.481,-1.36 -4.078,0.32 -4,2.16 0.16,3.602 6.563,2.316 29.762,4.316 32.161,2.797 0.562,-0.321 0.722,-1.918 0.48,-4.399 -0.48,-4 -1.359,-4.879 -2.238,-2.16 z" /><path
                                 id="path258"
                                 style="fill:#f8f8f9;fill-opacity:1;fill-rule:nonzero;stroke:none"
                                 d="m 630.719,473.76 c 0.242,1.039 0.48,2.641 0.48,3.602 0,1.519 0.321,1.679 3.039,1.277 1.602,-0.238 3.602,-0.801 4.403,-1.199 1.918,-0.961 1.757,-3.84 -0.161,-3.84 -0.878,0 -1.839,-0.398 -2.082,-0.801 -0.238,-0.48 -1.757,-0.801 -3.359,-0.801 -2.559,0 -2.801,0.161 -2.32,1.762 z" /></g></g></g></g></g></g><g
                     transform="translate(-154.882)"
                     id="g266" /></g></g><g
                 transform="translate(37.189,-31.316)"
                 id="g268" /></g></g><g
             id="g350" /><g
             id="g352" /><g
             id="g354" /><g
             id="g356" /><g
             id="g358"><path
               id="path360"
               style="fill:#a6cee3;fill-opacity:0.8;fill-rule:nonzero;stroke:#1f78b4;stroke-width:0.79701;stroke-linecap:butt;stroke-linejoin:miter;stroke-miterlimit:10;stroke-dasharray:none;stroke-opacity:1"
               d="M 107.71794,-22.67752 38.05684,-71.4548 c 26.93845,-38.47296 79.96544,-47.82227 118.4384,-20.88382 12.22481,8.55905 21.98938,20.19609 28.29578,33.72111 z" /></g><g
             id="g362" /><g
             id="g364"><g
               id="g366" /><g
               transform="translate(93.015,-70.81)"
               id="g368"><g
                 id="g370"><g
                   transform="translate(-183.989,-550.652)"
                   id="g372"><text
                     id="text376"
                     style="font-variant:normal;font-size:16.93650055px;font-family:'Nimbus Roman No9 L';-inkscape-font-specification:NimbusRomNo9L-Regu;writing-mode:lr-tb;fill:#1f78b4;fill-opacity:1;fill-rule:nonzero;stroke:none"
                     transform="matrix(1,0,0,-1,183.989,550.652)"><tspan
                       id="tspan374"
                       y="0"
                       x="0">1</tspan></text>
<g
                     transform="translate(183.989,550.652)"
                     id="g378" /></g></g><g
                 transform="translate(-93.015,70.81)"
                 id="g380" /></g></g><g
             id="g382"><path
               id="path384"
               style="fill:#b2df8a;fill-opacity:0.8;fill-rule:nonzero;stroke:#33a02c;stroke-width:0.79701;stroke-linecap:butt;stroke-linejoin:miter;stroke-miterlimit:10;stroke-dasharray:none;stroke-opacity:1"
               d="m 110.55237,-19.84267 7.41197,-84.71602 c 46.78676,4.09267 81.39671,45.34124 77.30405,92.12799 -1.3002,14.86675 -6.49587,29.14051 -15.05492,41.36532 z" /></g><g
             id="g386" /><g
             id="g388"><g
               id="g390" /><g
               transform="translate(151.94,-36.5)"
               id="g392"><g
                 id="g394"><g
                   transform="translate(-242.914,-584.962)"
                   id="g396"><text
                     id="text400"
                     style="font-variant:normal;font-size:16.93650055px;font-family:'Nimbus Roman No9 L';-inkscape-font-specification:NimbusRomNo9L-Regu;writing-mode:lr-tb;fill:#33a02c;fill-opacity:1;fill-rule:nonzero;stroke:none"
                     transform="matrix(1,0,0,-1,242.914,584.962)"><tspan
                       id="tspan398"
                       y="0"
                       x="0">2</tspan></text>
<g
                     transform="translate(242.914,584.962)"
                     id="g402" /></g></g><g
                 transform="translate(-151.94,36.5)"
                 id="g404" /></g></g><g
             id="g406"><path
               id="path408"
               style="fill:#fb9a99;fill-opacity:0.8;fill-rule:nonzero;stroke:#e31a1c;stroke-width:0.79701;stroke-linecap:butt;stroke-linejoin:miter;stroke-miterlimit:10;stroke-dasharray:none;stroke-opacity:1"
               d="m 110.55237,19.84267 69.6611,-48.77729 c 26.93846,38.47293 17.58914,91.49994 -20.8838,118.43839 -12.22481,8.55905 -26.49857,13.75471 -41.36533,15.05492 z" /></g><g
             id="g410" /><g
             id="g412"><g
               id="g414" /><g
               transform="translate(151.94,25.069)"
               id="g416"><g
                 id="g418"><g
                   transform="translate(-242.914,-646.531)"
                   id="g420"><text
                     id="text424"
                     style="font-variant:normal;font-size:16.93650055px;font-family:'Nimbus Roman No9 L';-inkscape-font-specification:NimbusRomNo9L-Regu;writing-mode:lr-tb;fill:#e31a1c;fill-opacity:1;fill-rule:nonzero;stroke:none"
                     transform="matrix(1,0,0,-1,242.914,646.531)"><tspan
                       id="tspan422"
                       y="0"
                       x="0">3</tspan></text>
<g
                     transform="translate(242.914,646.531)"
                     id="g426" /></g></g><g
                 transform="translate(-151.94,-25.069)"
                 id="g428" /></g></g><g
             id="g430"><path
               id="path432"
               style="fill:#fdbf6f;fill-opacity:0.8;fill-rule:nonzero;stroke:#ff7f00;stroke-width:0.79701;stroke-linecap:butt;stroke-linejoin:miter;stroke-miterlimit:10;stroke-dasharray:none;stroke-opacity:1"
               d="m 107.71794,22.67752 77.07308,35.93999 C 164.94272,101.18315 114.34357,119.59888 71.77794,99.75058 58.25293,93.44418 46.61589,83.67961 38.05684,71.4548 Z" /></g><g
             id="g434" /><g
             id="g436"><g
               id="g438" /><g
               transform="translate(93.015,59.26)"
               id="g440"><g
                 id="g442"><g
                   transform="translate(-183.989,-680.722)"
                   id="g444"><text
                     id="text448"
                     style="font-variant:normal;font-size:16.93650055px;font-family:'Nimbus Roman No9 L';-inkscape-font-specification:NimbusRomNo9L-Regu;writing-mode:lr-tb;fill:#ff7f00;fill-opacity:1;fill-rule:nonzero;stroke:none"
                     transform="matrix(1,0,0,-1,183.989,680.722)"><tspan
                       id="tspan446"
                       y="0"
                       x="0">4</tspan></text>
<g
                     transform="translate(183.989,680.722)"
                     id="g450" /></g></g><g
                 transform="translate(-93.015,-59.26)"
                 id="g452" /></g></g><g
             id="g454"><g
               id="g456"><path
                 id="path458"
                 style="fill:#cab2d6;fill-opacity:1;fill-rule:nonzero;stroke:#6a3d9a;stroke-width:0.79701;stroke-linecap:butt;stroke-linejoin:miter;stroke-miterlimit:10;stroke-dasharray:none;stroke-opacity:1"
                 d="m 59.52846,-9.92155 7.08714,-5.6697 v 11.3394 z" /></g><g
               id="g460"><path
                 id="path462"
                 style="fill:#ffffff;fill-opacity:1;fill-rule:nonzero;stroke:#6a3d9a;stroke-width:0.79701;stroke-linecap:butt;stroke-linejoin:miter;stroke-miterlimit:10;stroke-dasharray:none;stroke-opacity:1"
                 d="m 59.52846,-12.7564 c 1.56566,0 2.83485,1.2692 2.83485,2.83485 0,1.56565 -1.26919,2.83485 -2.83485,2.83485 -1.56565,0 -2.83484,-1.2692 -2.83484,-2.83485 0,-1.56565 1.26919,-2.83485 2.83484,-2.83485 z" /></g></g></g></g></g></g></svg>